%TF.GenerationSoftware,KiCad,Pcbnew,9.0.0*%
%TF.CreationDate,2025-03-09T00:38:03-06:00*%
%TF.ProjectId,Protyping board,50726f74-7970-4696-9e67-20626f617264,rev?*%
%TF.SameCoordinates,Original*%
%TF.FileFunction,Copper,L1,Top*%
%TF.FilePolarity,Positive*%
%FSLAX46Y46*%
G04 Gerber Fmt 4.6, Leading zero omitted, Abs format (unit mm)*
G04 Created by KiCad (PCBNEW 9.0.0) date 2025-03-09 00:38:03*
%MOMM*%
%LPD*%
G01*
G04 APERTURE LIST*
G04 Aperture macros list*
%AMRoundRect*
0 Rectangle with rounded corners*
0 $1 Rounding radius*
0 $2 $3 $4 $5 $6 $7 $8 $9 X,Y pos of 4 corners*
0 Add a 4 corners polygon primitive as box body*
4,1,4,$2,$3,$4,$5,$6,$7,$8,$9,$2,$3,0*
0 Add four circle primitives for the rounded corners*
1,1,$1+$1,$2,$3*
1,1,$1+$1,$4,$5*
1,1,$1+$1,$6,$7*
1,1,$1+$1,$8,$9*
0 Add four rect primitives between the rounded corners*
20,1,$1+$1,$2,$3,$4,$5,0*
20,1,$1+$1,$4,$5,$6,$7,0*
20,1,$1+$1,$6,$7,$8,$9,0*
20,1,$1+$1,$8,$9,$2,$3,0*%
G04 Aperture macros list end*
%TA.AperFunction,SMDPad,CuDef*%
%ADD10RoundRect,0.250000X-0.325000X-0.650000X0.325000X-0.650000X0.325000X0.650000X-0.325000X0.650000X0*%
%TD*%
%TA.AperFunction,SMDPad,CuDef*%
%ADD11R,1.250000X1.000000*%
%TD*%
%TA.AperFunction,SMDPad,CuDef*%
%ADD12RoundRect,0.200000X0.200000X0.275000X-0.200000X0.275000X-0.200000X-0.275000X0.200000X-0.275000X0*%
%TD*%
%TA.AperFunction,SMDPad,CuDef*%
%ADD13RoundRect,0.100000X-0.637500X-0.100000X0.637500X-0.100000X0.637500X0.100000X-0.637500X0.100000X0*%
%TD*%
%TA.AperFunction,SMDPad,CuDef*%
%ADD14RoundRect,0.150000X-0.425000X0.150000X-0.425000X-0.150000X0.425000X-0.150000X0.425000X0.150000X0*%
%TD*%
%TA.AperFunction,SMDPad,CuDef*%
%ADD15RoundRect,0.075000X-0.500000X0.075000X-0.500000X-0.075000X0.500000X-0.075000X0.500000X0.075000X0*%
%TD*%
%TA.AperFunction,HeatsinkPad*%
%ADD16O,2.100000X1.000000*%
%TD*%
%TA.AperFunction,HeatsinkPad*%
%ADD17O,1.800000X1.000000*%
%TD*%
%TA.AperFunction,SMDPad,CuDef*%
%ADD18RoundRect,0.250000X0.625000X-0.375000X0.625000X0.375000X-0.625000X0.375000X-0.625000X-0.375000X0*%
%TD*%
%TA.AperFunction,ComponentPad*%
%ADD19R,1.700000X1.700000*%
%TD*%
%TA.AperFunction,ComponentPad*%
%ADD20O,1.700000X1.700000*%
%TD*%
%TA.AperFunction,SMDPad,CuDef*%
%ADD21RoundRect,0.200000X-0.200000X-0.275000X0.200000X-0.275000X0.200000X0.275000X-0.200000X0.275000X0*%
%TD*%
%TA.AperFunction,SMDPad,CuDef*%
%ADD22RoundRect,0.140000X-0.140000X-0.170000X0.140000X-0.170000X0.140000X0.170000X-0.140000X0.170000X0*%
%TD*%
%TA.AperFunction,SMDPad,CuDef*%
%ADD23RoundRect,0.200000X-0.275000X0.200000X-0.275000X-0.200000X0.275000X-0.200000X0.275000X0.200000X0*%
%TD*%
%TA.AperFunction,SMDPad,CuDef*%
%ADD24RoundRect,0.140000X-0.170000X0.140000X-0.170000X-0.140000X0.170000X-0.140000X0.170000X0.140000X0*%
%TD*%
%TA.AperFunction,ComponentPad*%
%ADD25RoundRect,0.250000X1.050000X-1.050000X1.050000X1.050000X-1.050000X1.050000X-1.050000X-1.050000X0*%
%TD*%
%TA.AperFunction,ComponentPad*%
%ADD26C,2.600000*%
%TD*%
%TA.AperFunction,SMDPad,CuDef*%
%ADD27RoundRect,0.150000X-0.825000X-0.150000X0.825000X-0.150000X0.825000X0.150000X-0.825000X0.150000X0*%
%TD*%
%TA.AperFunction,SMDPad,CuDef*%
%ADD28RoundRect,0.150000X-0.512500X-0.150000X0.512500X-0.150000X0.512500X0.150000X-0.512500X0.150000X0*%
%TD*%
%TA.AperFunction,ViaPad*%
%ADD29C,0.600000*%
%TD*%
%TA.AperFunction,Conductor*%
%ADD30C,0.300000*%
%TD*%
%TA.AperFunction,Conductor*%
%ADD31C,0.500000*%
%TD*%
%TA.AperFunction,Conductor*%
%ADD32C,0.200000*%
%TD*%
G04 APERTURE END LIST*
D10*
%TO.P,C4,2*%
%TO.N,GND*%
X70975000Y-125250000D03*
%TO.P,C4,1*%
%TO.N,+5V*%
X68025000Y-125250000D03*
%TD*%
%TO.P,C5,2*%
%TO.N,GND*%
X85475000Y-126300000D03*
%TO.P,C5,1*%
%TO.N,+3V3*%
X82525000Y-126300000D03*
%TD*%
%TO.P,C3,2*%
%TO.N,GND*%
X89975000Y-134250000D03*
%TO.P,C3,1*%
%TO.N,+3V3*%
X87025000Y-134250000D03*
%TD*%
D11*
%TO.P,SW2,1,1*%
%TO.N,NRST*%
X68125000Y-149750000D03*
%TO.P,SW2,2,2*%
%TO.N,GND*%
X75875000Y-149750000D03*
%TD*%
D12*
%TO.P,R13,1*%
%TO.N,GND*%
X79825000Y-146500000D03*
%TO.P,R13,2*%
%TO.N,BOOT 0*%
X78175000Y-146500000D03*
%TD*%
%TO.P,R3,1*%
%TO.N,Net-(J1-Pin_1)*%
X87175000Y-139100000D03*
%TO.P,R3,2*%
%TO.N,Net-(R2-Pad1)*%
X85525000Y-139100000D03*
%TD*%
D13*
%TO.P,U3,1,PB8*%
%TO.N,BOOT 0*%
X74637500Y-130075000D03*
%TO.P,U3,2,PF0*%
%TO.N,unconnected-(U3-PF0-Pad2)*%
X74637500Y-130725000D03*
%TO.P,U3,3,PF1*%
%TO.N,unconnected-(U3-PF1-Pad3)*%
X74637500Y-131375000D03*
%TO.P,U3,4,NRST*%
%TO.N,NRST*%
X74637500Y-132025000D03*
%TO.P,U3,5,VDDA*%
%TO.N,+3V3*%
X74637500Y-132675000D03*
%TO.P,U3,6,PA0*%
%TO.N,Read{slash}Write*%
X74637500Y-133325000D03*
%TO.P,U3,7,PA1*%
%TO.N,unconnected-(U3-PA1-Pad7)*%
X74637500Y-133975000D03*
%TO.P,U3,8,PA2*%
%TO.N,USART2_TX*%
X74637500Y-134625000D03*
%TO.P,U3,9,PA3*%
%TO.N,USART2_RX*%
X74637500Y-135275000D03*
%TO.P,U3,10,PA4*%
%TO.N,TIM14_CH1*%
X74637500Y-135925000D03*
%TO.P,U3,11,PA5*%
%TO.N,unconnected-(U3-PA5-Pad11)*%
X80362500Y-135925000D03*
%TO.P,U3,12,PA6*%
%TO.N,TIM16_CH1*%
X80362500Y-135275000D03*
%TO.P,U3,13,PA7*%
%TO.N,unconnected-(U3-PA7-Pad13)*%
X80362500Y-134625000D03*
%TO.P,U3,14,PB1*%
%TO.N,unconnected-(U3-PB1-Pad14)*%
X80362500Y-133975000D03*
%TO.P,U3,15,VSSA*%
%TO.N,GND*%
X80362500Y-133325000D03*
%TO.P,U3,16,VDD*%
%TO.N,+3V3*%
X80362500Y-132675000D03*
%TO.P,U3,17,PA9/PA11*%
%TO.N,USB_DN*%
X80362500Y-132025000D03*
%TO.P,U3,18,PA10/PA12*%
%TO.N,USB_DP*%
X80362500Y-131375000D03*
%TO.P,U3,19,PA13*%
%TO.N,SWDIO*%
X80362500Y-130725000D03*
%TO.P,U3,20,PA14*%
%TO.N,SWCLK*%
X80362500Y-130075000D03*
%TD*%
D14*
%TO.P,J2,A1,GND*%
%TO.N,GND*%
X65680000Y-127300000D03*
%TO.P,J2,A4,VBUS*%
%TO.N,+5V*%
X65680000Y-128100000D03*
D15*
%TO.P,J2,A5,CC1*%
%TO.N,Net-(J2-CC1)*%
X65680000Y-129250000D03*
%TO.P,J2,A6,D+*%
%TO.N,USB_DP*%
X65680000Y-130250000D03*
%TO.P,J2,A7,D-*%
%TO.N,USB_DN*%
X65680000Y-130750000D03*
%TO.P,J2,A8,SBU1*%
%TO.N,unconnected-(J2-SBU1-PadA8)*%
X65680000Y-131750000D03*
D14*
%TO.P,J2,A9,VBUS*%
%TO.N,+5V*%
X65680000Y-132900000D03*
%TO.P,J2,A12,GND*%
%TO.N,GND*%
X65680000Y-133700000D03*
%TO.P,J2,B1,GND*%
X65680000Y-133700000D03*
%TO.P,J2,B4,VBUS*%
%TO.N,+5V*%
X65680000Y-132900000D03*
D15*
%TO.P,J2,B5,CC2*%
%TO.N,Net-(J2-CC2)*%
X65680000Y-132250000D03*
%TO.P,J2,B6,D+*%
%TO.N,USB_DP*%
X65680000Y-131250000D03*
%TO.P,J2,B7,D-*%
%TO.N,USB_DN*%
X65680000Y-129750000D03*
%TO.P,J2,B8,SBU2*%
%TO.N,unconnected-(J2-SBU2-PadB8)*%
X65680000Y-128750000D03*
D14*
%TO.P,J2,B9,VBUS*%
%TO.N,+5V*%
X65680000Y-128100000D03*
%TO.P,J2,B12,GND*%
%TO.N,GND*%
X65680000Y-127300000D03*
D16*
%TO.P,J2,S1,SHIELD*%
%TO.N,unconnected-(J2-SHIELD-PadS1)_2*%
X65105000Y-126180000D03*
D17*
%TO.N,unconnected-(J2-SHIELD-PadS1)*%
X60925000Y-126180000D03*
D16*
%TO.N,unconnected-(J2-SHIELD-PadS1)_1*%
X65105000Y-134820000D03*
D17*
%TO.N,unconnected-(J2-SHIELD-PadS1)_3*%
X60925000Y-134820000D03*
%TD*%
D18*
%TO.P,D1,1,K*%
%TO.N,Net-(D1-K)*%
X60900000Y-145525000D03*
%TO.P,D1,2,A*%
%TO.N,TIM14_CH1*%
X60900000Y-142725000D03*
%TD*%
D12*
%TO.P,R7,1*%
%TO.N,Net-(R6-Pad1)*%
X83875000Y-143950000D03*
%TO.P,R7,2*%
%TO.N,GND*%
X82225000Y-143950000D03*
%TD*%
D19*
%TO.P,J3,1,Pin_1*%
%TO.N,GND*%
X89160000Y-126200000D03*
D20*
%TO.P,J3,2,Pin_2*%
%TO.N,SWCLK*%
X91700000Y-126200000D03*
%TO.P,J3,3,Pin_3*%
%TO.N,SWDIO*%
X94240000Y-126200000D03*
%TO.P,J3,4,Pin_4*%
%TO.N,+3V3*%
X96780000Y-126200000D03*
%TD*%
D21*
%TO.P,R6,1*%
%TO.N,Net-(R6-Pad1)*%
X85625000Y-143950000D03*
%TO.P,R6,2*%
%TO.N,Net-(J1-Pin_2)*%
X87275000Y-143950000D03*
%TD*%
D18*
%TO.P,D2,1,K*%
%TO.N,Net-(D2-K)*%
X63850000Y-145525000D03*
%TO.P,D2,2,A*%
%TO.N,TIM16_CH1*%
X63850000Y-142725000D03*
%TD*%
D11*
%TO.P,SW1,1,1*%
%TO.N,BOOT 0*%
X78625000Y-149750000D03*
%TO.P,SW1,2,2*%
%TO.N,+3V3*%
X86375000Y-149750000D03*
%TD*%
D12*
%TO.P,R2,1*%
%TO.N,Net-(R2-Pad1)*%
X83775000Y-139000000D03*
%TO.P,R2,2*%
%TO.N,+5V*%
X82125000Y-139000000D03*
%TD*%
D22*
%TO.P,C7,1*%
%TO.N,BOOT 0*%
X81700000Y-146000000D03*
%TO.P,C7,2*%
%TO.N,+3V3*%
X82660000Y-146000000D03*
%TD*%
D23*
%TO.P,R8,1*%
%TO.N,Net-(D1-K)*%
X60700000Y-149100000D03*
%TO.P,R8,2*%
%TO.N,GND*%
X60700000Y-150750000D03*
%TD*%
D21*
%TO.P,R11,1*%
%TO.N,Net-(J2-CC2)*%
X67525000Y-132600000D03*
%TO.P,R11,2*%
%TO.N,GND*%
X69175000Y-132600000D03*
%TD*%
D23*
%TO.P,R5,1*%
%TO.N,Net-(J1-Pin_2)*%
X82250000Y-140675000D03*
%TO.P,R5,2*%
%TO.N,Net-(J1-Pin_1)*%
X82250000Y-142325000D03*
%TD*%
D22*
%TO.P,C6,1*%
%TO.N,NRST*%
X71340000Y-146000000D03*
%TO.P,C6,2*%
%TO.N,GND*%
X72300000Y-146000000D03*
%TD*%
D24*
%TO.P,C1,1*%
%TO.N,+3V3*%
X82750000Y-133590000D03*
%TO.P,C1,2*%
%TO.N,GND*%
X82750000Y-134550000D03*
%TD*%
D21*
%TO.P,R10,1*%
%TO.N,Net-(J2-CC1)*%
X67525000Y-129000000D03*
%TO.P,R10,2*%
%TO.N,GND*%
X69175000Y-129000000D03*
%TD*%
%TO.P,R1,1*%
%TO.N,+5V*%
X72825000Y-125950000D03*
%TO.P,R1,2*%
%TO.N,EN*%
X74475000Y-125950000D03*
%TD*%
D12*
%TO.P,R12,1*%
%TO.N,+3V3*%
X69505000Y-146500000D03*
%TO.P,R12,2*%
%TO.N,NRST*%
X67855000Y-146500000D03*
%TD*%
D25*
%TO.P,J1,1,Pin_1*%
%TO.N,Net-(J1-Pin_1)*%
X94000000Y-144000000D03*
D26*
%TO.P,J1,2,Pin_2*%
%TO.N,Net-(J1-Pin_2)*%
X94000000Y-138920000D03*
%TD*%
D27*
%TO.P,U2,1,RO*%
%TO.N,USART2_RX*%
X75025000Y-139595000D03*
%TO.P,U2,2,~{RE}*%
%TO.N,Read{slash}Write*%
X75025000Y-140865000D03*
%TO.P,U2,3,DE*%
X75025000Y-142135000D03*
%TO.P,U2,4,DI*%
%TO.N,USART2_TX*%
X75025000Y-143405000D03*
%TO.P,U2,5,GND*%
%TO.N,GND*%
X79975000Y-143405000D03*
%TO.P,U2,6,A*%
%TO.N,Net-(J1-Pin_1)*%
X79975000Y-142135000D03*
%TO.P,U2,7,B*%
%TO.N,Net-(J1-Pin_2)*%
X79975000Y-140865000D03*
%TO.P,U2,8,VCC*%
%TO.N,+5V*%
X79975000Y-139595000D03*
%TD*%
D24*
%TO.P,C2,1*%
%TO.N,+3V3*%
X84250000Y-133620000D03*
%TO.P,C2,2*%
%TO.N,GND*%
X84250000Y-134580000D03*
%TD*%
D23*
%TO.P,R9,1*%
%TO.N,Net-(D2-K)*%
X64000000Y-149000000D03*
%TO.P,R9,2*%
%TO.N,GND*%
X64000000Y-150650000D03*
%TD*%
D28*
%TO.P,U1,1,VIN*%
%TO.N,+5V*%
X76562500Y-124787500D03*
%TO.P,U1,2,GND*%
%TO.N,GND*%
X76562500Y-125737500D03*
%TO.P,U1,3,EN*%
%TO.N,EN*%
X76562500Y-126687500D03*
%TO.P,U1,4,NC*%
%TO.N,unconnected-(U1-NC-Pad4)*%
X78837500Y-126687500D03*
%TO.P,U1,5,VOUT*%
%TO.N,+3V3*%
X78837500Y-124787500D03*
%TD*%
D23*
%TO.P,R4,1*%
%TO.N,Net-(J1-Pin_2)*%
X85550000Y-140675000D03*
%TO.P,R4,2*%
%TO.N,Net-(J1-Pin_1)*%
X85550000Y-142325000D03*
%TD*%
D29*
%TO.N,GND*%
X86500000Y-128250000D03*
X72500000Y-124750000D03*
X84750000Y-136900000D03*
X70300000Y-132600000D03*
X75900000Y-145600000D03*
X64250000Y-124700000D03*
X70300000Y-129000000D03*
X75900000Y-148250000D03*
X64000000Y-151950000D03*
X81750000Y-134050000D03*
X76750000Y-128000000D03*
X67500000Y-135320083D03*
X60750000Y-151950000D03*
%TO.N,+3V3*%
X85750000Y-129425000D03*
X85750000Y-133729260D03*
%TO.N,+5V*%
X77001000Y-137100000D03*
X73987500Y-137095855D03*
X71500000Y-129675000D03*
X71500000Y-131325000D03*
%TO.N,NRST*%
X96804122Y-135679445D03*
X83350000Y-129425000D03*
X83399997Y-131375000D03*
X95500000Y-149050000D03*
%TO.N,TIM16_CH1*%
X81592831Y-137407169D03*
X80232169Y-138167831D03*
%TO.N,USB_DP*%
X76900000Y-131275000D03*
X73150000Y-131275000D03*
%TO.N,USB_DN*%
X67600000Y-130875000D03*
X64500000Y-129850000D03*
X76900000Y-132125000D03*
X73150000Y-132125000D03*
%TO.N,BOOT 0*%
X97800000Y-135500000D03*
X84200000Y-129425000D03*
X84200000Y-131375000D03*
X94450000Y-147700000D03*
%TO.N,Read{slash}Write*%
X72959620Y-140309620D03*
X72800000Y-136345855D03*
%TD*%
D30*
%TO.N,BOOT 0*%
X78625000Y-149750000D02*
X78625000Y-148150000D01*
%TO.N,+3V3*%
X86375000Y-152175000D02*
X86500000Y-152300000D01*
X86375000Y-149750000D02*
X86375000Y-152175000D01*
X86500000Y-152300000D02*
X91317041Y-152300000D01*
X85625000Y-149750000D02*
X82660000Y-146785000D01*
X86375000Y-149750000D02*
X85625000Y-149750000D01*
D31*
%TO.N,GND*%
X75900000Y-149725000D02*
X75875000Y-149750000D01*
X75900000Y-148250000D02*
X75900000Y-149725000D01*
X75900000Y-148250000D02*
X75900000Y-145600000D01*
X75900000Y-148250000D02*
X75875000Y-148275000D01*
D30*
%TO.N,NRST*%
X96804122Y-133762642D02*
X96804122Y-135679445D01*
X84155346Y-132251000D02*
X95292479Y-132251000D01*
X83399997Y-131495651D02*
X84155346Y-132251000D01*
X83399997Y-131375000D02*
X83399997Y-131495651D01*
X95292479Y-132251000D02*
X96804122Y-133762642D01*
%TO.N,BOOT 0*%
X84575000Y-131750000D02*
X84200000Y-131375000D01*
X96621740Y-132871739D02*
X95500000Y-131750000D01*
X97750000Y-134000000D02*
X97305122Y-133555121D01*
X97011642Y-133261642D02*
X96621740Y-132871739D01*
X95500000Y-131750000D02*
X84575000Y-131750000D01*
X97750000Y-135550000D02*
X97750000Y-134000000D01*
X97800000Y-135500000D02*
X97750000Y-135550000D01*
X97305122Y-133555121D02*
X97011642Y-133261642D01*
D31*
%TO.N,+3V3*%
X86504260Y-133729260D02*
X87025000Y-134250000D01*
X85750000Y-133729260D02*
X86504260Y-133729260D01*
%TO.N,+5V*%
X72525000Y-127725000D02*
X66975000Y-127725000D01*
X72825000Y-125950000D02*
X72825000Y-127425000D01*
X72825000Y-127425000D02*
X72525000Y-127725000D01*
X66600000Y-128100000D02*
X66975000Y-127725000D01*
%TO.N,GND*%
X85475000Y-127225000D02*
X86500000Y-128250000D01*
X85475000Y-126300000D02*
X85475000Y-127225000D01*
%TO.N,+3V3*%
X85675000Y-129425000D02*
X85750000Y-129425000D01*
X82550000Y-126300000D02*
X85675000Y-129425000D01*
X82525000Y-126300000D02*
X82550000Y-126300000D01*
D30*
%TO.N,BOOT 0*%
X84001000Y-129226000D02*
X84200000Y-129425000D01*
X84001000Y-129155346D02*
X84001000Y-129226000D01*
X83801000Y-128955346D02*
X84001000Y-129155346D01*
X83801000Y-128858521D02*
X83801000Y-128955346D01*
X83801000Y-128443479D02*
X83801000Y-128858521D01*
X83507521Y-128150000D02*
X83801000Y-128443479D01*
X83500000Y-128150000D02*
X83507521Y-128150000D01*
X80342479Y-128150000D02*
X80615938Y-128150000D01*
X80757521Y-128150000D02*
X83092479Y-128150000D01*
X80615938Y-128150000D02*
X80757521Y-128150000D01*
X83092479Y-128150000D02*
X83500000Y-128150000D01*
X80200898Y-128150000D02*
X80342479Y-128150000D01*
X80141479Y-128150000D02*
X80200898Y-128150000D01*
X77975000Y-130075000D02*
X79900000Y-128150000D01*
X79900000Y-128150000D02*
X80141479Y-128150000D01*
X74637500Y-130075000D02*
X77975000Y-130075000D01*
X80200898Y-128150000D02*
X80200897Y-128150000D01*
D31*
%TO.N,+3V3*%
X80350000Y-126300000D02*
X82525000Y-126300000D01*
%TO.N,GND*%
X89915284Y-134250000D02*
X89975000Y-134250000D01*
X87265284Y-136900000D02*
X89915284Y-134250000D01*
X84750000Y-136900000D02*
X87265284Y-136900000D01*
X71500000Y-124750000D02*
X72500000Y-124750000D01*
X71000000Y-125250000D02*
X71500000Y-124750000D01*
X70975000Y-125250000D02*
X71000000Y-125250000D01*
%TO.N,+5V*%
X68025000Y-125675000D02*
X68025000Y-125250000D01*
X68025000Y-126675000D02*
X68025000Y-125250000D01*
X66975000Y-127725000D02*
X68025000Y-126675000D01*
X65680000Y-128100000D02*
X66600000Y-128100000D01*
%TO.N,+3V3*%
X85500000Y-135750000D02*
X85189999Y-135439999D01*
X86500000Y-135750000D02*
X85500000Y-135750000D01*
X85189999Y-135439999D02*
X85189999Y-134250000D01*
X87025000Y-135225000D02*
X86500000Y-135750000D01*
X87025000Y-134250000D02*
X87025000Y-135225000D01*
%TO.N,GND*%
X79825000Y-146500000D02*
X78899000Y-145574000D01*
X84220000Y-134550000D02*
X84250000Y-134580000D01*
X65680000Y-127300000D02*
X65879917Y-127300000D01*
X60700000Y-151900000D02*
X60750000Y-151950000D01*
X64000000Y-150650000D02*
X64000000Y-151950000D01*
X84250000Y-134580000D02*
X84250000Y-136450000D01*
X75900000Y-145574000D02*
X72726000Y-145574000D01*
D30*
X80362500Y-133325000D02*
X81090582Y-133325000D01*
D31*
X78899000Y-145574000D02*
X75900000Y-145574000D01*
D30*
X81680000Y-143405000D02*
X82225000Y-143950000D01*
D31*
X65519917Y-124700000D02*
X64250000Y-124700000D01*
D30*
X81090582Y-133325000D02*
X81750000Y-133984418D01*
D31*
X75900000Y-145574000D02*
X75900000Y-145600000D01*
X60700000Y-150750000D02*
X60700000Y-151900000D01*
X79825000Y-146500000D02*
X79825000Y-143555000D01*
X66606000Y-126573917D02*
X66606000Y-125786083D01*
D30*
X69175000Y-129000000D02*
X70300000Y-129000000D01*
D31*
X77676000Y-127090600D02*
X76766600Y-128000000D01*
X76562500Y-125737500D02*
X77129100Y-125737500D01*
X72726000Y-145574000D02*
X72300000Y-146000000D01*
X67500000Y-135320083D02*
X65879917Y-133700000D01*
X82250000Y-134550000D02*
X81750000Y-134050000D01*
X84250000Y-136450000D02*
X84700000Y-136900000D01*
X65879917Y-133700000D02*
X65680000Y-133700000D01*
X82750000Y-134550000D02*
X82250000Y-134550000D01*
D30*
X81750000Y-133984418D02*
X81750000Y-134050000D01*
D31*
X76766600Y-128000000D02*
X76750000Y-128000000D01*
X77129100Y-125737500D02*
X77676000Y-126284400D01*
X82750000Y-134550000D02*
X84220000Y-134550000D01*
D30*
X69175000Y-132600000D02*
X70300000Y-132600000D01*
D31*
X84700000Y-136900000D02*
X84750000Y-136900000D01*
X66606000Y-125786083D02*
X65519917Y-124700000D01*
X77676000Y-126284400D02*
X77676000Y-127090600D01*
D30*
X79975000Y-143405000D02*
X81680000Y-143405000D01*
D31*
X65879917Y-127300000D02*
X66606000Y-126573917D01*
X79825000Y-143555000D02*
X79975000Y-143405000D01*
D30*
%TO.N,+3V3*%
X98502000Y-145115041D02*
X98502000Y-127922000D01*
X98502000Y-127922000D02*
X96780000Y-126200000D01*
D31*
X78837500Y-124787500D02*
X80350000Y-126300000D01*
D30*
X81835000Y-132675000D02*
X82750000Y-133590000D01*
X74612500Y-132650000D02*
X74637500Y-132675000D01*
X81835000Y-132675000D02*
X80362500Y-132675000D01*
X75845654Y-132850000D02*
X79459418Y-132850000D01*
X93117041Y-150500000D02*
X98502000Y-145115041D01*
X79634418Y-132675000D02*
X80362500Y-132675000D01*
X79459418Y-132850000D02*
X79634418Y-132675000D01*
X69505000Y-146500000D02*
X69505000Y-148755000D01*
X74612500Y-132700000D02*
X74637500Y-132675000D01*
X74637500Y-132675000D02*
X75670654Y-132675000D01*
X75670654Y-132675000D02*
X75845654Y-132850000D01*
D31*
X82780000Y-133620000D02*
X82750000Y-133590000D01*
D30*
X82660000Y-146000000D02*
X82660000Y-146785000D01*
D31*
X84595000Y-133620000D02*
X84250000Y-133620000D01*
X84250000Y-133620000D02*
X82780000Y-133620000D01*
D30*
X74736500Y-132774000D02*
X74637500Y-132675000D01*
X69505000Y-148755000D02*
X73050000Y-152300000D01*
X91317041Y-152300000D02*
X93117041Y-150500000D01*
D31*
X78837500Y-124787500D02*
X95367500Y-124787500D01*
X95367500Y-124787500D02*
X96780000Y-126200000D01*
D30*
X73050000Y-152300000D02*
X86500000Y-152300000D01*
D31*
%TO.N,+5V*%
X82125000Y-139000000D02*
X80570000Y-139000000D01*
X69200000Y-135750000D02*
X70550000Y-137100000D01*
X73987500Y-124787500D02*
X76562500Y-124787500D01*
X71500000Y-131325000D02*
X71500000Y-133450000D01*
X80570000Y-139000000D02*
X79975000Y-139595000D01*
X80225000Y-137100000D02*
X82125000Y-139000000D01*
X73987500Y-137095855D02*
X70554145Y-137095855D01*
X70554145Y-137095855D02*
X70550000Y-137100000D01*
X71500000Y-133450000D02*
X69200000Y-135750000D01*
X71450000Y-129625000D02*
X71500000Y-129675000D01*
X66350000Y-132900000D02*
X69200000Y-135750000D01*
X72825000Y-125950000D02*
X73987500Y-124787500D01*
X65680000Y-132900000D02*
X66350000Y-132900000D01*
X80225000Y-137100000D02*
X77001000Y-137100000D01*
D30*
%TO.N,NRST*%
X67855000Y-146500000D02*
X68705000Y-145650000D01*
X78459418Y-130600000D02*
X80408418Y-128651000D01*
X75800000Y-131599999D02*
X75800000Y-130600000D01*
X68705000Y-145650000D02*
X70990000Y-145650000D01*
X95500000Y-149050000D02*
X91749000Y-152801000D01*
X83300000Y-128651000D02*
X83300000Y-129375000D01*
X74637500Y-132025000D02*
X75374999Y-132025000D01*
X80550000Y-128651000D02*
X83300000Y-128651000D01*
X68125000Y-146770000D02*
X67855000Y-146500000D01*
X75374999Y-132025000D02*
X75800000Y-131599999D01*
X70990000Y-145650000D02*
X71340000Y-146000000D01*
X91749000Y-152801000D02*
X70426000Y-152801000D01*
X80408418Y-128651000D02*
X80550000Y-128651000D01*
X83300000Y-129375000D02*
X83350000Y-129425000D01*
X80349000Y-128651000D02*
X80550000Y-128651000D01*
X68125000Y-150500000D02*
X68125000Y-146770000D01*
X75800000Y-130600000D02*
X78459418Y-130600000D01*
X70426000Y-152801000D02*
X68125000Y-150500000D01*
%TO.N,Net-(D1-K)*%
X60900000Y-145525000D02*
X60900000Y-148900000D01*
X60900000Y-148900000D02*
X60700000Y-149100000D01*
%TO.N,TIM14_CH1*%
X71500000Y-140850000D02*
X62775000Y-140850000D01*
X62775000Y-140850000D02*
X60900000Y-142725000D01*
X60900000Y-142250000D02*
X60900000Y-142725000D01*
X74637500Y-137712500D02*
X71500000Y-140850000D01*
X74637500Y-135925000D02*
X74637500Y-137712500D01*
%TO.N,Net-(D2-K)*%
X63850000Y-148850000D02*
X64000000Y-149000000D01*
X63850000Y-145525000D02*
X63850000Y-148850000D01*
%TO.N,TIM16_CH1*%
X63850000Y-142725000D02*
X66125000Y-145000000D01*
X77700000Y-143350000D02*
X77700000Y-140182322D01*
X72477058Y-144973000D02*
X75606346Y-144973000D01*
X81425000Y-135275000D02*
X80362500Y-135275000D01*
X76101000Y-144949000D02*
X77700000Y-143350000D01*
X79714491Y-138167831D02*
X80232169Y-138167831D01*
X75606346Y-144973000D02*
X75630346Y-144949000D01*
X81592831Y-137407169D02*
X81592831Y-135442831D01*
X81592831Y-135442831D02*
X81425000Y-135275000D01*
X72450058Y-145000000D02*
X72477058Y-144973000D01*
X75630346Y-144949000D02*
X76101000Y-144949000D01*
X66125000Y-145000000D02*
X72450058Y-145000000D01*
X77700000Y-140182322D02*
X79714491Y-138167831D01*
%TO.N,Net-(J1-Pin_2)*%
X88716226Y-136299000D02*
X86276000Y-138739226D01*
X96607520Y-136299000D02*
X88716226Y-136299000D01*
X86250000Y-140725000D02*
X92195000Y-140725000D01*
X85050000Y-140725000D02*
X86250000Y-140725000D01*
X87275000Y-143950000D02*
X90226000Y-146901000D01*
X82250000Y-140725000D02*
X80115000Y-140725000D01*
X92195000Y-140725000D02*
X94000000Y-138920000D01*
X82250000Y-140725000D02*
X85050000Y-140725000D01*
X90226000Y-146901000D02*
X96007521Y-146901000D01*
X96007521Y-146901000D02*
X98001000Y-144907520D01*
X86276000Y-140699000D02*
X86250000Y-140725000D01*
X86276000Y-138739226D02*
X86276000Y-140699000D01*
X98001000Y-137692479D02*
X96607520Y-136299000D01*
X98001000Y-144907520D02*
X98001000Y-137692479D01*
X80115000Y-140725000D02*
X79975000Y-140865000D01*
%TO.N,Net-(J1-Pin_1)*%
X87175000Y-139100000D02*
X87175000Y-138625000D01*
X93500000Y-141250000D02*
X92375000Y-142375000D01*
X89000000Y-136800000D02*
X96350000Y-136800000D01*
X85050000Y-142375000D02*
X89150000Y-142375000D01*
X89150000Y-142375000D02*
X92375000Y-142375000D01*
X82250000Y-142375000D02*
X80215000Y-142375000D01*
X96350000Y-140850000D02*
X95950000Y-141250000D01*
X85050000Y-142375000D02*
X82250000Y-142375000D01*
X92375000Y-142375000D02*
X94000000Y-144000000D01*
X96350000Y-136800000D02*
X96350000Y-140850000D01*
X87175000Y-138625000D02*
X89000000Y-136800000D01*
X95950000Y-141250000D02*
X93500000Y-141250000D01*
X80215000Y-142375000D02*
X79975000Y-142135000D01*
%TO.N,Net-(J2-CC1)*%
X65680000Y-129250000D02*
X67275000Y-129250000D01*
X67275000Y-129250000D02*
X67525000Y-129000000D01*
D32*
%TO.N,USB_DP*%
X65071176Y-131250000D02*
X65680000Y-131250000D01*
X66542501Y-130250000D02*
X65680000Y-130250000D01*
X77099999Y-131474999D02*
X76900000Y-131275000D01*
X66567501Y-130275000D02*
X66542501Y-130250000D01*
X64804000Y-130982824D02*
X65071176Y-131250000D01*
X80362500Y-131375000D02*
X80262501Y-131474999D01*
X80262501Y-131474999D02*
X77099999Y-131474999D01*
X72936397Y-131275000D02*
X71936397Y-130275000D01*
X64804000Y-130517176D02*
X64804000Y-130982824D01*
X71936397Y-130275000D02*
X66567501Y-130275000D01*
X65071176Y-130250000D02*
X64804000Y-130517176D01*
X65680000Y-130250000D02*
X65071176Y-130250000D01*
X73150000Y-131275000D02*
X72936397Y-131275000D01*
%TO.N,USB_DN*%
X67450000Y-130725000D02*
X67600000Y-130875000D01*
X66950000Y-130725000D02*
X67450000Y-130725000D01*
X77099999Y-131925001D02*
X76900000Y-132125000D01*
X66542501Y-130750000D02*
X65680000Y-130750000D01*
X80262501Y-131925001D02*
X77099999Y-131925001D01*
X66950000Y-130725000D02*
X66567501Y-130725000D01*
X71750000Y-130725000D02*
X66950000Y-130725000D01*
X80362500Y-132025000D02*
X80262501Y-131925001D01*
X66567501Y-130725000D02*
X66542501Y-130750000D01*
X73150000Y-132125000D02*
X71750000Y-130725000D01*
X64500000Y-129850000D02*
X64600000Y-129750000D01*
X64600000Y-129750000D02*
X65680000Y-129750000D01*
D30*
%TO.N,Net-(J2-CC2)*%
X67175000Y-132250000D02*
X67525000Y-132600000D01*
X65680000Y-132250000D02*
X67175000Y-132250000D01*
%TO.N,SWDIO*%
X89715000Y-130725000D02*
X94240000Y-126200000D01*
X80362500Y-130725000D02*
X89715000Y-130725000D01*
%TO.N,SWCLK*%
X91700000Y-128031480D02*
X91700000Y-126200000D01*
X80362500Y-130075000D02*
X89656480Y-130075000D01*
X89656480Y-130075000D02*
X91700000Y-128031480D01*
%TO.N,EN*%
X75212500Y-126687500D02*
X76562500Y-126687500D01*
X74475000Y-125950000D02*
X75212500Y-126687500D01*
%TO.N,Net-(R2-Pad1)*%
X85425000Y-139000000D02*
X85525000Y-139100000D01*
X83775000Y-139000000D02*
X85425000Y-139000000D01*
%TO.N,Net-(R6-Pad1)*%
X83875000Y-143950000D02*
X85625000Y-143950000D01*
%TO.N,BOOT 0*%
X94450000Y-147700000D02*
X85368260Y-147700000D01*
X78625000Y-146950000D02*
X78175000Y-146500000D01*
X81700000Y-145951740D02*
X81700000Y-146000000D01*
X78625000Y-148150000D02*
X79550000Y-148150000D01*
X85368260Y-147700000D02*
X83007260Y-145339000D01*
X82312740Y-145339000D02*
X81700000Y-145951740D01*
X83007260Y-145339000D02*
X82312740Y-145339000D01*
X79550000Y-148150000D02*
X81700000Y-146000000D01*
X78625000Y-148150000D02*
X78625000Y-146950000D01*
%TO.N,USART2_RX*%
X74637500Y-135275000D02*
X75365582Y-135275000D01*
X75726000Y-135635418D02*
X75726000Y-138894000D01*
X75365582Y-135275000D02*
X75726000Y-135635418D01*
X75726000Y-138894000D02*
X75025000Y-139595000D01*
%TO.N,Read{slash}Write*%
X72800000Y-134054346D02*
X72800000Y-136345855D01*
X72959620Y-140900000D02*
X73200000Y-140900000D01*
X72959620Y-141959620D02*
X73150000Y-142150000D01*
X73235000Y-140865000D02*
X75025000Y-140865000D01*
X73165000Y-142135000D02*
X75025000Y-142135000D01*
X72959620Y-140309620D02*
X72959620Y-140900000D01*
X72959620Y-140900000D02*
X72959620Y-141959620D01*
X73529346Y-133325000D02*
X72800000Y-134054346D01*
X74637500Y-133325000D02*
X73529346Y-133325000D01*
X73150000Y-142150000D02*
X73165000Y-142135000D01*
X73200000Y-140900000D02*
X73235000Y-140865000D01*
%TO.N,USART2_TX*%
X76351000Y-143053999D02*
X75999999Y-143405000D01*
X74637500Y-134625000D02*
X75424102Y-134625000D01*
X75999999Y-143405000D02*
X75025000Y-143405000D01*
X75424102Y-134625000D02*
X76351000Y-135551898D01*
X74607322Y-143405000D02*
X75025000Y-143405000D01*
X76351000Y-135551898D02*
X76351000Y-143053999D01*
D31*
%TO.N,+3V3*%
X84559999Y-133620000D02*
X84250000Y-133620000D01*
X85189999Y-134250000D02*
X84559999Y-133620000D01*
%TD*%
M02*
