%TF.GenerationSoftware,KiCad,Pcbnew,9.0.0*%
%TF.CreationDate,2025-03-09T00:38:03-06:00*%
%TF.ProjectId,Protyping board,50726f74-7970-4696-9e67-20626f617264,rev?*%
%TF.SameCoordinates,Original*%
%TF.FileFunction,Copper,L2,Bot*%
%TF.FilePolarity,Positive*%
%FSLAX46Y46*%
G04 Gerber Fmt 4.6, Leading zero omitted, Abs format (unit mm)*
G04 Created by KiCad (PCBNEW 9.0.0) date 2025-03-09 00:38:03*
%MOMM*%
%LPD*%
G01*
G04 APERTURE LIST*
G04 Aperture macros list*
%AMRoundRect*
0 Rectangle with rounded corners*
0 $1 Rounding radius*
0 $2 $3 $4 $5 $6 $7 $8 $9 X,Y pos of 4 corners*
0 Add a 4 corners polygon primitive as box body*
4,1,4,$2,$3,$4,$5,$6,$7,$8,$9,$2,$3,0*
0 Add four circle primitives for the rounded corners*
1,1,$1+$1,$2,$3*
1,1,$1+$1,$4,$5*
1,1,$1+$1,$6,$7*
1,1,$1+$1,$8,$9*
0 Add four rect primitives between the rounded corners*
20,1,$1+$1,$2,$3,$4,$5,0*
20,1,$1+$1,$4,$5,$6,$7,0*
20,1,$1+$1,$6,$7,$8,$9,0*
20,1,$1+$1,$8,$9,$2,$3,0*%
G04 Aperture macros list end*
%TA.AperFunction,HeatsinkPad*%
%ADD10O,2.100000X1.000000*%
%TD*%
%TA.AperFunction,HeatsinkPad*%
%ADD11O,1.800000X1.000000*%
%TD*%
%TA.AperFunction,ComponentPad*%
%ADD12R,1.700000X1.700000*%
%TD*%
%TA.AperFunction,ComponentPad*%
%ADD13O,1.700000X1.700000*%
%TD*%
%TA.AperFunction,ComponentPad*%
%ADD14RoundRect,0.250000X1.050000X-1.050000X1.050000X1.050000X-1.050000X1.050000X-1.050000X-1.050000X0*%
%TD*%
%TA.AperFunction,ComponentPad*%
%ADD15C,2.600000*%
%TD*%
%TA.AperFunction,ViaPad*%
%ADD16C,0.600000*%
%TD*%
%TA.AperFunction,Conductor*%
%ADD17C,0.500000*%
%TD*%
%TA.AperFunction,Conductor*%
%ADD18C,0.300000*%
%TD*%
%TA.AperFunction,Conductor*%
%ADD19C,0.200000*%
%TD*%
G04 APERTURE END LIST*
D10*
%TO.P,J2,S1,SHIELD*%
%TO.N,unconnected-(J2-SHIELD-PadS1)_2*%
X65105000Y-126180000D03*
D11*
%TO.N,unconnected-(J2-SHIELD-PadS1)*%
X60925000Y-126180000D03*
D10*
%TO.N,unconnected-(J2-SHIELD-PadS1)_1*%
X65105000Y-134820000D03*
D11*
%TO.N,unconnected-(J2-SHIELD-PadS1)_3*%
X60925000Y-134820000D03*
%TD*%
D12*
%TO.P,J3,1,Pin_1*%
%TO.N,GND*%
X89160000Y-126200000D03*
D13*
%TO.P,J3,2,Pin_2*%
%TO.N,SWCLK*%
X91700000Y-126200000D03*
%TO.P,J3,3,Pin_3*%
%TO.N,SWDIO*%
X94240000Y-126200000D03*
%TO.P,J3,4,Pin_4*%
%TO.N,+3V3*%
X96780000Y-126200000D03*
%TD*%
D14*
%TO.P,J1,1,Pin_1*%
%TO.N,Net-(J1-Pin_1)*%
X94000000Y-144000000D03*
D15*
%TO.P,J1,2,Pin_2*%
%TO.N,Net-(J1-Pin_2)*%
X94000000Y-138920000D03*
%TD*%
D16*
%TO.N,GND*%
X86500000Y-128250000D03*
X72500000Y-124750000D03*
X84750000Y-136900000D03*
X70300000Y-132600000D03*
X75900000Y-145600000D03*
X64250000Y-124700000D03*
X70300000Y-129000000D03*
X75900000Y-148250000D03*
X64000000Y-151950000D03*
X81750000Y-134050000D03*
X76750000Y-128000000D03*
X67500000Y-135320083D03*
X60750000Y-151950000D03*
%TO.N,+3V3*%
X85750000Y-129425000D03*
X85750000Y-133729260D03*
%TO.N,+5V*%
X77001000Y-137100000D03*
X73987500Y-137095855D03*
X71500000Y-129675000D03*
X71500000Y-131325000D03*
%TO.N,NRST*%
X96804122Y-135679445D03*
X83350000Y-129425000D03*
X83399997Y-131375000D03*
X95500000Y-149050000D03*
%TO.N,TIM16_CH1*%
X81592831Y-137407169D03*
X80232169Y-138167831D03*
%TO.N,USB_DP*%
X76900000Y-131275000D03*
X73150000Y-131275000D03*
%TO.N,USB_DN*%
X67600000Y-130875000D03*
X64500000Y-129850000D03*
X76900000Y-132125000D03*
X73150000Y-132125000D03*
%TO.N,BOOT 0*%
X97800000Y-135500000D03*
X84200000Y-129425000D03*
X84200000Y-131375000D03*
X94450000Y-147700000D03*
%TO.N,Read{slash}Write*%
X72959620Y-140309620D03*
X72800000Y-136345855D03*
%TD*%
D17*
%TO.N,+3V3*%
X85750000Y-129425000D02*
X85750000Y-133729260D01*
%TO.N,+5V*%
X73991645Y-137100000D02*
X73987500Y-137095855D01*
X77001000Y-137100000D02*
X73991645Y-137100000D01*
X71500000Y-129675000D02*
X71500000Y-131325000D01*
D18*
%TO.N,NRST*%
X94879346Y-149050000D02*
X95500000Y-149050000D01*
X83350000Y-129425000D02*
X83350000Y-131325003D01*
X96804122Y-144425224D02*
X93799000Y-147430346D01*
X83350000Y-131325003D02*
X83399997Y-131375000D01*
X93799000Y-147430346D02*
X93799000Y-147969654D01*
X96804122Y-135679445D02*
X96804122Y-144425224D01*
X93799000Y-147969654D02*
X94879346Y-149050000D01*
%TO.N,TIM16_CH1*%
X80232169Y-138167831D02*
X80832169Y-138167831D01*
X80832169Y-138167831D02*
X81592831Y-137407169D01*
D19*
%TO.N,USB_DP*%
X73349999Y-131474999D02*
X73150000Y-131275000D01*
X76700001Y-131474999D02*
X73349999Y-131474999D01*
X76900000Y-131275000D02*
X76700001Y-131474999D01*
%TO.N,USB_DN*%
X73349999Y-131925001D02*
X73150000Y-132125000D01*
X67600000Y-130875000D02*
X65525000Y-130875000D01*
X76900000Y-132125000D02*
X76700001Y-131925001D01*
X76700001Y-131925001D02*
X73349999Y-131925001D01*
X65525000Y-130875000D02*
X64500000Y-129850000D01*
D18*
%TO.N,BOOT 0*%
X97800000Y-145050000D02*
X95250000Y-147600000D01*
X97800000Y-135500000D02*
X97800000Y-145050000D01*
X94550000Y-147600000D02*
X94450000Y-147700000D01*
X95250000Y-147600000D02*
X94550000Y-147600000D01*
X84200000Y-129425000D02*
X84200000Y-131375000D01*
%TO.N,Read{slash}Write*%
X72800000Y-140150000D02*
X72959620Y-140309620D01*
X72800000Y-136345855D02*
X72800000Y-140150000D01*
%TD*%
%TA.AperFunction,Conductor*%
%TO.N,GND*%
G36*
X98456922Y-123851279D02*
G01*
X98569518Y-123863966D01*
X98596583Y-123870143D01*
X98696927Y-123905255D01*
X98721941Y-123917301D01*
X98811955Y-123973860D01*
X98833662Y-123991172D01*
X98908827Y-124066337D01*
X98926140Y-124088046D01*
X98982697Y-124178056D01*
X98994745Y-124203074D01*
X99029855Y-124303414D01*
X99036033Y-124330484D01*
X99048720Y-124443077D01*
X99049500Y-124456961D01*
X99049500Y-152793038D01*
X99048720Y-152806921D01*
X99048720Y-152806922D01*
X99036033Y-152919515D01*
X99029855Y-152946585D01*
X98994745Y-153046925D01*
X98982697Y-153071943D01*
X98926140Y-153161953D01*
X98908827Y-153183662D01*
X98833662Y-153258827D01*
X98811953Y-153276140D01*
X98721943Y-153332697D01*
X98696925Y-153344745D01*
X98596585Y-153379855D01*
X98569516Y-153386033D01*
X98484855Y-153395572D01*
X98456921Y-153398720D01*
X98443039Y-153399500D01*
X59306961Y-153399500D01*
X59293077Y-153398720D01*
X59180484Y-153386033D01*
X59153414Y-153379855D01*
X59053074Y-153344745D01*
X59028056Y-153332697D01*
X58938046Y-153276140D01*
X58916337Y-153258827D01*
X58841172Y-153183662D01*
X58823859Y-153161953D01*
X58767302Y-153071943D01*
X58755254Y-153046925D01*
X58720144Y-152946585D01*
X58713966Y-152919514D01*
X58701280Y-152806921D01*
X58700500Y-152793038D01*
X58700500Y-142899983D01*
X92199500Y-142899983D01*
X92199500Y-145100001D01*
X92199501Y-145100018D01*
X92210000Y-145202796D01*
X92210001Y-145202799D01*
X92222244Y-145239744D01*
X92265186Y-145369334D01*
X92357288Y-145518656D01*
X92481344Y-145642712D01*
X92630666Y-145734814D01*
X92797203Y-145789999D01*
X92899991Y-145800500D01*
X94209537Y-145800499D01*
X94276576Y-145820184D01*
X94322331Y-145872987D01*
X94332275Y-145942146D01*
X94303250Y-146005702D01*
X94297218Y-146012180D01*
X93293726Y-147015672D01*
X93222534Y-147122220D01*
X93173499Y-147240601D01*
X93173497Y-147240607D01*
X93148500Y-147366274D01*
X93148500Y-147366277D01*
X93148500Y-148033723D01*
X93164602Y-148114669D01*
X93173499Y-148159398D01*
X93210820Y-148249500D01*
X93222535Y-148277781D01*
X93264513Y-148340606D01*
X93293726Y-148384327D01*
X94464672Y-149555273D01*
X94464675Y-149555275D01*
X94464677Y-149555277D01*
X94571219Y-149626465D01*
X94689602Y-149675501D01*
X94689606Y-149675501D01*
X94689607Y-149675502D01*
X94815274Y-149700500D01*
X94815277Y-149700500D01*
X94995065Y-149700500D01*
X95062104Y-149720185D01*
X95063909Y-149721366D01*
X95120821Y-149759394D01*
X95120823Y-149759395D01*
X95120827Y-149759397D01*
X95266498Y-149819735D01*
X95266503Y-149819737D01*
X95421153Y-149850499D01*
X95421156Y-149850500D01*
X95421158Y-149850500D01*
X95578844Y-149850500D01*
X95578845Y-149850499D01*
X95733497Y-149819737D01*
X95879179Y-149759394D01*
X96010289Y-149671789D01*
X96121789Y-149560289D01*
X96209394Y-149429179D01*
X96269737Y-149283497D01*
X96300500Y-149128842D01*
X96300500Y-148971158D01*
X96300500Y-148971155D01*
X96300499Y-148971153D01*
X96269738Y-148816510D01*
X96269737Y-148816503D01*
X96269735Y-148816498D01*
X96209397Y-148670827D01*
X96209390Y-148670814D01*
X96121789Y-148539711D01*
X96121786Y-148539707D01*
X96010292Y-148428213D01*
X96010288Y-148428210D01*
X95879185Y-148340609D01*
X95879176Y-148340604D01*
X95732547Y-148279869D01*
X95678144Y-148236028D01*
X95656079Y-148169734D01*
X95673358Y-148102035D01*
X95692319Y-148077627D01*
X98305272Y-145464674D01*
X98305277Y-145464669D01*
X98376466Y-145358126D01*
X98425501Y-145239743D01*
X98450500Y-145114069D01*
X98450500Y-144985931D01*
X98450500Y-136004935D01*
X98470185Y-135937896D01*
X98471366Y-135936090D01*
X98509394Y-135879179D01*
X98569737Y-135733497D01*
X98600500Y-135578842D01*
X98600500Y-135421158D01*
X98600500Y-135421155D01*
X98600499Y-135421153D01*
X98576453Y-135300266D01*
X98569737Y-135266503D01*
X98529415Y-135169156D01*
X98509397Y-135120827D01*
X98509390Y-135120814D01*
X98421789Y-134989711D01*
X98421786Y-134989707D01*
X98310292Y-134878213D01*
X98310288Y-134878210D01*
X98179185Y-134790609D01*
X98179172Y-134790602D01*
X98033501Y-134730264D01*
X98033489Y-134730261D01*
X97878845Y-134699500D01*
X97878842Y-134699500D01*
X97721158Y-134699500D01*
X97721155Y-134699500D01*
X97566510Y-134730261D01*
X97566498Y-134730264D01*
X97420827Y-134790602D01*
X97420814Y-134790609D01*
X97289714Y-134878208D01*
X97289708Y-134878213D01*
X97252187Y-134915733D01*
X97190863Y-134949217D01*
X97121172Y-134944231D01*
X97117056Y-134942611D01*
X97037623Y-134909709D01*
X97037611Y-134909706D01*
X96882967Y-134878945D01*
X96882964Y-134878945D01*
X96725280Y-134878945D01*
X96725277Y-134878945D01*
X96570632Y-134909706D01*
X96570620Y-134909709D01*
X96424949Y-134970047D01*
X96424936Y-134970054D01*
X96293833Y-135057655D01*
X96293829Y-135057658D01*
X96182335Y-135169152D01*
X96182332Y-135169156D01*
X96094731Y-135300259D01*
X96094724Y-135300272D01*
X96034386Y-135445943D01*
X96034383Y-135445955D01*
X96003622Y-135600598D01*
X96003622Y-135758291D01*
X96034383Y-135912934D01*
X96034386Y-135912946D01*
X96094724Y-136058617D01*
X96094728Y-136058624D01*
X96132724Y-136115489D01*
X96153602Y-136182166D01*
X96153622Y-136184380D01*
X96153622Y-144104415D01*
X96144977Y-144133855D01*
X96138454Y-144163842D01*
X96134699Y-144168857D01*
X96133937Y-144171454D01*
X96117303Y-144192096D01*
X96012180Y-144297219D01*
X95950857Y-144330704D01*
X95881165Y-144325720D01*
X95825232Y-144283848D01*
X95800815Y-144218384D01*
X95800499Y-144209538D01*
X95800499Y-142899998D01*
X95800498Y-142899981D01*
X95789999Y-142797203D01*
X95789998Y-142797200D01*
X95734814Y-142630666D01*
X95642712Y-142481344D01*
X95518656Y-142357288D01*
X95369334Y-142265186D01*
X95202797Y-142210001D01*
X95202795Y-142210000D01*
X95100010Y-142199500D01*
X92899998Y-142199500D01*
X92899981Y-142199501D01*
X92797203Y-142210000D01*
X92797200Y-142210001D01*
X92630668Y-142265185D01*
X92630663Y-142265187D01*
X92481342Y-142357289D01*
X92357289Y-142481342D01*
X92265187Y-142630663D01*
X92265186Y-142630666D01*
X92210001Y-142797203D01*
X92210001Y-142797204D01*
X92210000Y-142797204D01*
X92199500Y-142899983D01*
X58700500Y-142899983D01*
X58700500Y-136267008D01*
X71999500Y-136267008D01*
X71999500Y-136424701D01*
X72030261Y-136579344D01*
X72030264Y-136579356D01*
X72090602Y-136725027D01*
X72090606Y-136725034D01*
X72128602Y-136781899D01*
X72149480Y-136848576D01*
X72149500Y-136850790D01*
X72149500Y-140214068D01*
X72156737Y-140250448D01*
X72159120Y-140274642D01*
X72159120Y-140388466D01*
X72189881Y-140543109D01*
X72189884Y-140543121D01*
X72250222Y-140688792D01*
X72250229Y-140688805D01*
X72337830Y-140819908D01*
X72337833Y-140819912D01*
X72449327Y-140931406D01*
X72449331Y-140931409D01*
X72580434Y-141019010D01*
X72580447Y-141019017D01*
X72726118Y-141079355D01*
X72726123Y-141079357D01*
X72880773Y-141110119D01*
X72880776Y-141110120D01*
X72880778Y-141110120D01*
X73038464Y-141110120D01*
X73038465Y-141110119D01*
X73193117Y-141079357D01*
X73338799Y-141019014D01*
X73469909Y-140931409D01*
X73581409Y-140819909D01*
X73669014Y-140688799D01*
X73729357Y-140543117D01*
X73760120Y-140388462D01*
X73760120Y-140230778D01*
X73760120Y-140230775D01*
X73760119Y-140230773D01*
X73756796Y-140214068D01*
X73729357Y-140076123D01*
X73729355Y-140076118D01*
X73669017Y-139930447D01*
X73669010Y-139930434D01*
X73581409Y-139799331D01*
X73581406Y-139799327D01*
X73486819Y-139704740D01*
X73453334Y-139643417D01*
X73450500Y-139617059D01*
X73450500Y-138088984D01*
X79431669Y-138088984D01*
X79431669Y-138246677D01*
X79462430Y-138401320D01*
X79462433Y-138401332D01*
X79522771Y-138547003D01*
X79522778Y-138547016D01*
X79610379Y-138678119D01*
X79610382Y-138678123D01*
X79721876Y-138789617D01*
X79721880Y-138789620D01*
X79852983Y-138877221D01*
X79852996Y-138877228D01*
X79998667Y-138937566D01*
X79998672Y-138937568D01*
X80153322Y-138968330D01*
X80153325Y-138968331D01*
X80153327Y-138968331D01*
X80311013Y-138968331D01*
X80311014Y-138968330D01*
X80465666Y-138937568D01*
X80611348Y-138877225D01*
X80668213Y-138839228D01*
X80734890Y-138818351D01*
X80737104Y-138818331D01*
X80896240Y-138818331D01*
X80978361Y-138801995D01*
X92199500Y-138801995D01*
X92199500Y-139038004D01*
X92199501Y-139038020D01*
X92230306Y-139272010D01*
X92291394Y-139499993D01*
X92381714Y-139718045D01*
X92381719Y-139718056D01*
X92428642Y-139799327D01*
X92499727Y-139922450D01*
X92499729Y-139922453D01*
X92499730Y-139922454D01*
X92643406Y-140109697D01*
X92643412Y-140109704D01*
X92810295Y-140276587D01*
X92810301Y-140276592D01*
X92997550Y-140420273D01*
X93128918Y-140496118D01*
X93201943Y-140538280D01*
X93201948Y-140538282D01*
X93201951Y-140538284D01*
X93420007Y-140628606D01*
X93647986Y-140689693D01*
X93881989Y-140720500D01*
X93881996Y-140720500D01*
X94118004Y-140720500D01*
X94118011Y-140720500D01*
X94352014Y-140689693D01*
X94579993Y-140628606D01*
X94798049Y-140538284D01*
X95002450Y-140420273D01*
X95189699Y-140276592D01*
X95356592Y-140109699D01*
X95500273Y-139922450D01*
X95618284Y-139718049D01*
X95708606Y-139499993D01*
X95769693Y-139272014D01*
X95800500Y-139038011D01*
X95800500Y-138801989D01*
X95769693Y-138567986D01*
X95708606Y-138340007D01*
X95618284Y-138121951D01*
X95618282Y-138121948D01*
X95618280Y-138121943D01*
X95564593Y-138028955D01*
X95500273Y-137917550D01*
X95414102Y-137805249D01*
X95356593Y-137730302D01*
X95356587Y-137730295D01*
X95189704Y-137563412D01*
X95189697Y-137563406D01*
X95002454Y-137419730D01*
X95002453Y-137419729D01*
X95002450Y-137419727D01*
X94920957Y-137372677D01*
X94798056Y-137301719D01*
X94798045Y-137301714D01*
X94579993Y-137211394D01*
X94352014Y-137150307D01*
X94352013Y-137150306D01*
X94352010Y-137150306D01*
X94118020Y-137119501D01*
X94118017Y-137119500D01*
X94118011Y-137119500D01*
X93881989Y-137119500D01*
X93881983Y-137119500D01*
X93881979Y-137119501D01*
X93647989Y-137150306D01*
X93420006Y-137211394D01*
X93201954Y-137301714D01*
X93201943Y-137301719D01*
X92997545Y-137419730D01*
X92810302Y-137563406D01*
X92810295Y-137563412D01*
X92643412Y-137730295D01*
X92643406Y-137730302D01*
X92499730Y-137917545D01*
X92499727Y-137917549D01*
X92499727Y-137917550D01*
X92492014Y-137930909D01*
X92381719Y-138121943D01*
X92381714Y-138121954D01*
X92291394Y-138340006D01*
X92230306Y-138567989D01*
X92199501Y-138801979D01*
X92199500Y-138801995D01*
X80978361Y-138801995D01*
X80980784Y-138801513D01*
X81021913Y-138793332D01*
X81140296Y-138744296D01*
X81246838Y-138673108D01*
X81695763Y-138224181D01*
X81757083Y-138190699D01*
X81759148Y-138190268D01*
X81826328Y-138176906D01*
X81972010Y-138116563D01*
X82103120Y-138028958D01*
X82214620Y-137917458D01*
X82302225Y-137786348D01*
X82362568Y-137640666D01*
X82393331Y-137486011D01*
X82393331Y-137328327D01*
X82393331Y-137328324D01*
X82393330Y-137328322D01*
X82363597Y-137178846D01*
X82362568Y-137173672D01*
X82340130Y-137119501D01*
X82302228Y-137027996D01*
X82302221Y-137027983D01*
X82214620Y-136896880D01*
X82214617Y-136896876D01*
X82103123Y-136785382D01*
X82103119Y-136785379D01*
X81972016Y-136697778D01*
X81972003Y-136697771D01*
X81826332Y-136637433D01*
X81826320Y-136637430D01*
X81671676Y-136606669D01*
X81671673Y-136606669D01*
X81513989Y-136606669D01*
X81513986Y-136606669D01*
X81359341Y-136637430D01*
X81359329Y-136637433D01*
X81213658Y-136697771D01*
X81213645Y-136697778D01*
X81082542Y-136785379D01*
X81082538Y-136785382D01*
X80971044Y-136896876D01*
X80971041Y-136896880D01*
X80883440Y-137027983D01*
X80883433Y-137027996D01*
X80823095Y-137173667D01*
X80823092Y-137173677D01*
X80809751Y-137240748D01*
X80800985Y-137257504D01*
X80796966Y-137275983D01*
X80778223Y-137301019D01*
X80777366Y-137302659D01*
X80775815Y-137304237D01*
X80677195Y-137402857D01*
X80615872Y-137436342D01*
X80546180Y-137431358D01*
X80542062Y-137429738D01*
X80517900Y-137419730D01*
X80465666Y-137398094D01*
X80465661Y-137398093D01*
X80465658Y-137398092D01*
X80311014Y-137367331D01*
X80311011Y-137367331D01*
X80153327Y-137367331D01*
X80153324Y-137367331D01*
X79998679Y-137398092D01*
X79998667Y-137398095D01*
X79852996Y-137458433D01*
X79852983Y-137458440D01*
X79721880Y-137546041D01*
X79721876Y-137546044D01*
X79610382Y-137657538D01*
X79610379Y-137657542D01*
X79522778Y-137788645D01*
X79522771Y-137788658D01*
X79462433Y-137934329D01*
X79462430Y-137934341D01*
X79431669Y-138088984D01*
X73450500Y-138088984D01*
X73450500Y-137925456D01*
X73470185Y-137858417D01*
X73522989Y-137812662D01*
X73592147Y-137802718D01*
X73621949Y-137810893D01*
X73754003Y-137865592D01*
X73908653Y-137896354D01*
X73908656Y-137896355D01*
X73908658Y-137896355D01*
X74066344Y-137896355D01*
X74066345Y-137896354D01*
X74142652Y-137881175D01*
X74220988Y-137865594D01*
X74220989Y-137865593D01*
X74220997Y-137865592D01*
X74234648Y-137859937D01*
X74282097Y-137850500D01*
X76696396Y-137850500D01*
X76743844Y-137859937D01*
X76767503Y-137869737D01*
X76767508Y-137869738D01*
X76767511Y-137869739D01*
X76922153Y-137900499D01*
X76922156Y-137900500D01*
X76922158Y-137900500D01*
X77079844Y-137900500D01*
X77079845Y-137900499D01*
X77234497Y-137869737D01*
X77380179Y-137809394D01*
X77511289Y-137721789D01*
X77622789Y-137610289D01*
X77710394Y-137479179D01*
X77770737Y-137333497D01*
X77801500Y-137178842D01*
X77801500Y-137021158D01*
X77801500Y-137021155D01*
X77801499Y-137021153D01*
X77776779Y-136896880D01*
X77770737Y-136866503D01*
X77764229Y-136850790D01*
X77710397Y-136720827D01*
X77710390Y-136720814D01*
X77622789Y-136589711D01*
X77622786Y-136589707D01*
X77511292Y-136478213D01*
X77511288Y-136478210D01*
X77380185Y-136390609D01*
X77380172Y-136390602D01*
X77234501Y-136330264D01*
X77234489Y-136330261D01*
X77079845Y-136299500D01*
X77079842Y-136299500D01*
X76922158Y-136299500D01*
X76922155Y-136299500D01*
X76767511Y-136330260D01*
X76767506Y-136330262D01*
X76767504Y-136330262D01*
X76767503Y-136330263D01*
X76743844Y-136340062D01*
X76696396Y-136349500D01*
X74302111Y-136349500D01*
X74254663Y-136340062D01*
X74220997Y-136326118D01*
X74220990Y-136326116D01*
X74220989Y-136326116D01*
X74220988Y-136326115D01*
X74066345Y-136295355D01*
X74066342Y-136295355D01*
X73908658Y-136295355D01*
X73908655Y-136295355D01*
X73754006Y-136326116D01*
X73751243Y-136326955D01*
X73749724Y-136326968D01*
X73748028Y-136327306D01*
X73747963Y-136326984D01*
X73681376Y-136327578D01*
X73622263Y-136290328D01*
X73593632Y-136232485D01*
X73576581Y-136146765D01*
X73569737Y-136112358D01*
X73547477Y-136058617D01*
X73509397Y-135966682D01*
X73509390Y-135966669D01*
X73421789Y-135835566D01*
X73421786Y-135835562D01*
X73310292Y-135724068D01*
X73310288Y-135724065D01*
X73179185Y-135636464D01*
X73179172Y-135636457D01*
X73033501Y-135576119D01*
X73033489Y-135576116D01*
X72878845Y-135545355D01*
X72878842Y-135545355D01*
X72721158Y-135545355D01*
X72721155Y-135545355D01*
X72566510Y-135576116D01*
X72566498Y-135576119D01*
X72420827Y-135636457D01*
X72420814Y-135636464D01*
X72289711Y-135724065D01*
X72289707Y-135724068D01*
X72178213Y-135835562D01*
X72178210Y-135835566D01*
X72090609Y-135966669D01*
X72090602Y-135966682D01*
X72030264Y-136112353D01*
X72030261Y-136112365D01*
X71999500Y-136267008D01*
X58700500Y-136267008D01*
X58700500Y-134918543D01*
X59524499Y-134918543D01*
X59562947Y-135111829D01*
X59562950Y-135111839D01*
X59638364Y-135293907D01*
X59638371Y-135293920D01*
X59747860Y-135457781D01*
X59747863Y-135457785D01*
X59887214Y-135597136D01*
X59887218Y-135597139D01*
X60051079Y-135706628D01*
X60051092Y-135706635D01*
X60233160Y-135782049D01*
X60233165Y-135782051D01*
X60233169Y-135782051D01*
X60233170Y-135782052D01*
X60426456Y-135820500D01*
X60426459Y-135820500D01*
X61423543Y-135820500D01*
X61553582Y-135794632D01*
X61616835Y-135782051D01*
X61798914Y-135706632D01*
X61962782Y-135597139D01*
X62102139Y-135457782D01*
X62211632Y-135293914D01*
X62287051Y-135111835D01*
X62314093Y-134975886D01*
X62325500Y-134918543D01*
X63554499Y-134918543D01*
X63592947Y-135111829D01*
X63592950Y-135111839D01*
X63668364Y-135293907D01*
X63668371Y-135293920D01*
X63777860Y-135457781D01*
X63777863Y-135457785D01*
X63917214Y-135597136D01*
X63917218Y-135597139D01*
X64081079Y-135706628D01*
X64081092Y-135706635D01*
X64263160Y-135782049D01*
X64263165Y-135782051D01*
X64263169Y-135782051D01*
X64263170Y-135782052D01*
X64456456Y-135820500D01*
X64456459Y-135820500D01*
X65753543Y-135820500D01*
X65883582Y-135794632D01*
X65946835Y-135782051D01*
X66128914Y-135706632D01*
X66292782Y-135597139D01*
X66432139Y-135457782D01*
X66541632Y-135293914D01*
X66617051Y-135111835D01*
X66644093Y-134975886D01*
X66655500Y-134918543D01*
X66655500Y-134721456D01*
X66617052Y-134528170D01*
X66617051Y-134528169D01*
X66617051Y-134528165D01*
X66604969Y-134498997D01*
X66541635Y-134346092D01*
X66541628Y-134346079D01*
X66432139Y-134182218D01*
X66432136Y-134182214D01*
X66292785Y-134042863D01*
X66292781Y-134042860D01*
X66128920Y-133933371D01*
X66128907Y-133933364D01*
X65946839Y-133857950D01*
X65946829Y-133857947D01*
X65753543Y-133819500D01*
X65753541Y-133819500D01*
X65343829Y-133819500D01*
X65276790Y-133799815D01*
X65231035Y-133747011D01*
X65221091Y-133677853D01*
X65229266Y-133648051D01*
X65254540Y-133587036D01*
X65263035Y-133544325D01*
X65280500Y-133456533D01*
X65280500Y-133323466D01*
X65254541Y-133192969D01*
X65254540Y-133192968D01*
X65254540Y-133192964D01*
X65203620Y-133070031D01*
X65129695Y-132959394D01*
X65129692Y-132959390D01*
X65035609Y-132865307D01*
X65035601Y-132865301D01*
X64924979Y-132791386D01*
X64924972Y-132791382D01*
X64924969Y-132791380D01*
X64924965Y-132791378D01*
X64924961Y-132791376D01*
X64802040Y-132740461D01*
X64802030Y-132740458D01*
X64671533Y-132714500D01*
X64671531Y-132714500D01*
X64538469Y-132714500D01*
X64538467Y-132714500D01*
X64407969Y-132740458D01*
X64407959Y-132740461D01*
X64285038Y-132791376D01*
X64285020Y-132791386D01*
X64174398Y-132865301D01*
X64174390Y-132865307D01*
X64080307Y-132959390D01*
X64080301Y-132959398D01*
X64006386Y-133070020D01*
X64006376Y-133070038D01*
X63955461Y-133192959D01*
X63955458Y-133192969D01*
X63929500Y-133323466D01*
X63929500Y-133323469D01*
X63929500Y-133456531D01*
X63929500Y-133456533D01*
X63929499Y-133456533D01*
X63955458Y-133587030D01*
X63955461Y-133587040D01*
X64006376Y-133709961D01*
X64006386Y-133709979D01*
X64063744Y-133795822D01*
X64084622Y-133862499D01*
X64066137Y-133929879D01*
X64029533Y-133967814D01*
X63917218Y-134042860D01*
X63917214Y-134042863D01*
X63777863Y-134182214D01*
X63777860Y-134182218D01*
X63668371Y-134346079D01*
X63668364Y-134346092D01*
X63592950Y-134528160D01*
X63592947Y-134528170D01*
X63554500Y-134721456D01*
X63554500Y-134721459D01*
X63554500Y-134918541D01*
X63554500Y-134918543D01*
X63554499Y-134918543D01*
X62325500Y-134918543D01*
X62325500Y-134721456D01*
X62287052Y-134528170D01*
X62287051Y-134528169D01*
X62287051Y-134528165D01*
X62274969Y-134498997D01*
X62211635Y-134346092D01*
X62211628Y-134346079D01*
X62102139Y-134182218D01*
X62102136Y-134182214D01*
X61962785Y-134042863D01*
X61962781Y-134042860D01*
X61798920Y-133933371D01*
X61798907Y-133933364D01*
X61616839Y-133857950D01*
X61616829Y-133857947D01*
X61423543Y-133819500D01*
X61423541Y-133819500D01*
X60426459Y-133819500D01*
X60426457Y-133819500D01*
X60233170Y-133857947D01*
X60233160Y-133857950D01*
X60051092Y-133933364D01*
X60051079Y-133933371D01*
X59887218Y-134042860D01*
X59887214Y-134042863D01*
X59747863Y-134182214D01*
X59747860Y-134182218D01*
X59638371Y-134346079D01*
X59638364Y-134346092D01*
X59562950Y-134528160D01*
X59562947Y-134528170D01*
X59524500Y-134721456D01*
X59524500Y-134721459D01*
X59524500Y-134918541D01*
X59524500Y-134918543D01*
X59524499Y-134918543D01*
X58700500Y-134918543D01*
X58700500Y-129771153D01*
X63699500Y-129771153D01*
X63699500Y-129928846D01*
X63730261Y-130083489D01*
X63730264Y-130083501D01*
X63790602Y-130229172D01*
X63790609Y-130229185D01*
X63878210Y-130360288D01*
X63878213Y-130360292D01*
X63989707Y-130471786D01*
X63989711Y-130471789D01*
X64120814Y-130559390D01*
X64120827Y-130559397D01*
X64266498Y-130619735D01*
X64266503Y-130619737D01*
X64331147Y-130632595D01*
X64421849Y-130650638D01*
X64483760Y-130683023D01*
X64485339Y-130684574D01*
X65040139Y-131239374D01*
X65040149Y-131239385D01*
X65044479Y-131243715D01*
X65044480Y-131243716D01*
X65156284Y-131355520D01*
X65226296Y-131395941D01*
X65293215Y-131434577D01*
X65445943Y-131475501D01*
X65445946Y-131475501D01*
X65611653Y-131475501D01*
X65611669Y-131475500D01*
X67020234Y-131475500D01*
X67087273Y-131495185D01*
X67089125Y-131496398D01*
X67220814Y-131584390D01*
X67220827Y-131584397D01*
X67366498Y-131644735D01*
X67366503Y-131644737D01*
X67521153Y-131675499D01*
X67521156Y-131675500D01*
X67521158Y-131675500D01*
X67678844Y-131675500D01*
X67678845Y-131675499D01*
X67833497Y-131644737D01*
X67979179Y-131584394D01*
X68110289Y-131496789D01*
X68221789Y-131385289D01*
X68309394Y-131254179D01*
X68312719Y-131246153D01*
X68333429Y-131196153D01*
X68369737Y-131108497D01*
X68400500Y-130953842D01*
X68400500Y-130796158D01*
X68400500Y-130796155D01*
X68400499Y-130796153D01*
X68372066Y-130653211D01*
X68369737Y-130641503D01*
X68360721Y-130619737D01*
X68309397Y-130495827D01*
X68309390Y-130495814D01*
X68221789Y-130364711D01*
X68221786Y-130364707D01*
X68110292Y-130253213D01*
X68110288Y-130253210D01*
X67979185Y-130165609D01*
X67979172Y-130165602D01*
X67833501Y-130105264D01*
X67833489Y-130105261D01*
X67678845Y-130074500D01*
X67678842Y-130074500D01*
X67521158Y-130074500D01*
X67521155Y-130074500D01*
X67366510Y-130105261D01*
X67366498Y-130105264D01*
X67220827Y-130165602D01*
X67220814Y-130165609D01*
X67089125Y-130253602D01*
X67022447Y-130274480D01*
X67020234Y-130274500D01*
X65825097Y-130274500D01*
X65758058Y-130254815D01*
X65737416Y-130238181D01*
X65334574Y-129835339D01*
X65325511Y-129818743D01*
X65312379Y-129805133D01*
X65301974Y-129775637D01*
X65301089Y-129774016D01*
X65300638Y-129771849D01*
X65269739Y-129616512D01*
X65269738Y-129616509D01*
X65269737Y-129616503D01*
X65261308Y-129596153D01*
X70699500Y-129596153D01*
X70699500Y-129753846D01*
X70730261Y-129908489D01*
X70730263Y-129908497D01*
X70740061Y-129932151D01*
X70749500Y-129979604D01*
X70749500Y-131020396D01*
X70740062Y-131067844D01*
X70730263Y-131091503D01*
X70730262Y-131091506D01*
X70730260Y-131091511D01*
X70699500Y-131246153D01*
X70699500Y-131403846D01*
X70730261Y-131558489D01*
X70730264Y-131558501D01*
X70790602Y-131704172D01*
X70790609Y-131704185D01*
X70878210Y-131835288D01*
X70878213Y-131835292D01*
X70989707Y-131946786D01*
X70989711Y-131946789D01*
X71120814Y-132034390D01*
X71120827Y-132034397D01*
X71266498Y-132094735D01*
X71266503Y-132094737D01*
X71421153Y-132125499D01*
X71421156Y-132125500D01*
X71421158Y-132125500D01*
X71578844Y-132125500D01*
X71578845Y-132125499D01*
X71733497Y-132094737D01*
X71879179Y-132034394D01*
X72010289Y-131946789D01*
X72121789Y-131835289D01*
X72163632Y-131772665D01*
X72217243Y-131727862D01*
X72286568Y-131719154D01*
X72349596Y-131749308D01*
X72386316Y-131808751D01*
X72385069Y-131878609D01*
X72381299Y-131889000D01*
X72380265Y-131891495D01*
X72380261Y-131891510D01*
X72349500Y-132046153D01*
X72349500Y-132203846D01*
X72380261Y-132358489D01*
X72380264Y-132358501D01*
X72440602Y-132504172D01*
X72440609Y-132504185D01*
X72528210Y-132635288D01*
X72528213Y-132635292D01*
X72639707Y-132746786D01*
X72639711Y-132746789D01*
X72770814Y-132834390D01*
X72770827Y-132834397D01*
X72916498Y-132894735D01*
X72916503Y-132894737D01*
X73071153Y-132925499D01*
X73071156Y-132925500D01*
X73071158Y-132925500D01*
X73228844Y-132925500D01*
X73228845Y-132925499D01*
X73383497Y-132894737D01*
X73529179Y-132834394D01*
X73660289Y-132746789D01*
X73771789Y-132635289D01*
X73808324Y-132580609D01*
X73861935Y-132535806D01*
X73911426Y-132525501D01*
X76138574Y-132525501D01*
X76205613Y-132545186D01*
X76241675Y-132580609D01*
X76266042Y-132617076D01*
X76278212Y-132635291D01*
X76389707Y-132746786D01*
X76389711Y-132746789D01*
X76520814Y-132834390D01*
X76520827Y-132834397D01*
X76666498Y-132894735D01*
X76666503Y-132894737D01*
X76821153Y-132925499D01*
X76821156Y-132925500D01*
X76821158Y-132925500D01*
X76978844Y-132925500D01*
X76978845Y-132925499D01*
X77133497Y-132894737D01*
X77279179Y-132834394D01*
X77410289Y-132746789D01*
X77521789Y-132635289D01*
X77609394Y-132504179D01*
X77669737Y-132358497D01*
X77700500Y-132203842D01*
X77700500Y-132046158D01*
X77700500Y-132046155D01*
X77700499Y-132046153D01*
X77692699Y-132006941D01*
X77669737Y-131891503D01*
X77646454Y-131835292D01*
X77610070Y-131747452D01*
X77602601Y-131677983D01*
X77610070Y-131652548D01*
X77669735Y-131508501D01*
X77669737Y-131508497D01*
X77700500Y-131353842D01*
X77700500Y-131196158D01*
X77700500Y-131196155D01*
X77700499Y-131196153D01*
X77679683Y-131091506D01*
X77669737Y-131041503D01*
X77650815Y-130995821D01*
X77609397Y-130895827D01*
X77609390Y-130895814D01*
X77521789Y-130764711D01*
X77521786Y-130764707D01*
X77410292Y-130653213D01*
X77410288Y-130653210D01*
X77279185Y-130565609D01*
X77279172Y-130565602D01*
X77133501Y-130505264D01*
X77133489Y-130505261D01*
X76978845Y-130474500D01*
X76978842Y-130474500D01*
X76821158Y-130474500D01*
X76821155Y-130474500D01*
X76666510Y-130505261D01*
X76666498Y-130505264D01*
X76520827Y-130565602D01*
X76520814Y-130565609D01*
X76389711Y-130653210D01*
X76389707Y-130653213D01*
X76278212Y-130764708D01*
X76257202Y-130796153D01*
X76241675Y-130819390D01*
X76188065Y-130864194D01*
X76138574Y-130874499D01*
X73911426Y-130874499D01*
X73844387Y-130854814D01*
X73808324Y-130819390D01*
X73771789Y-130764711D01*
X73771787Y-130764708D01*
X73660292Y-130653213D01*
X73660288Y-130653210D01*
X73529185Y-130565609D01*
X73529172Y-130565602D01*
X73383501Y-130505264D01*
X73383489Y-130505261D01*
X73228845Y-130474500D01*
X73228842Y-130474500D01*
X73071158Y-130474500D01*
X73071155Y-130474500D01*
X72916510Y-130505261D01*
X72916498Y-130505264D01*
X72770827Y-130565602D01*
X72770814Y-130565609D01*
X72639711Y-130653210D01*
X72639707Y-130653213D01*
X72528213Y-130764707D01*
X72528210Y-130764711D01*
X72477602Y-130840451D01*
X72423989Y-130885256D01*
X72354664Y-130893963D01*
X72291637Y-130863808D01*
X72254918Y-130804365D01*
X72250500Y-130771560D01*
X72250500Y-129979604D01*
X72259939Y-129932151D01*
X72261774Y-129927721D01*
X72269737Y-129908497D01*
X72300500Y-129753842D01*
X72300500Y-129596158D01*
X72300500Y-129596155D01*
X72300499Y-129596153D01*
X72275570Y-129470827D01*
X72269737Y-129441503D01*
X72230242Y-129346153D01*
X82549500Y-129346153D01*
X82549500Y-129503846D01*
X82580261Y-129658489D01*
X82580264Y-129658501D01*
X82640602Y-129804172D01*
X82640606Y-129804179D01*
X82678602Y-129861044D01*
X82699480Y-129927721D01*
X82699500Y-129929935D01*
X82699500Y-130949677D01*
X82690061Y-130997129D01*
X82630261Y-131141498D01*
X82630258Y-131141510D01*
X82599497Y-131296153D01*
X82599497Y-131453846D01*
X82630258Y-131608489D01*
X82630261Y-131608501D01*
X82690599Y-131754172D01*
X82690606Y-131754185D01*
X82778207Y-131885288D01*
X82778210Y-131885292D01*
X82889704Y-131996786D01*
X82889708Y-131996789D01*
X83020811Y-132084390D01*
X83020824Y-132084397D01*
X83120057Y-132125500D01*
X83166500Y-132144737D01*
X83321150Y-132175499D01*
X83321153Y-132175500D01*
X83321155Y-132175500D01*
X83478841Y-132175500D01*
X83478842Y-132175499D01*
X83633494Y-132144737D01*
X83752547Y-132095423D01*
X83822014Y-132087955D01*
X83847447Y-132095422D01*
X83966503Y-132144737D01*
X84121153Y-132175499D01*
X84121156Y-132175500D01*
X84121158Y-132175500D01*
X84278844Y-132175500D01*
X84278845Y-132175499D01*
X84433497Y-132144737D01*
X84579179Y-132084394D01*
X84710289Y-131996789D01*
X84710292Y-131996786D01*
X84787819Y-131919260D01*
X84849142Y-131885775D01*
X84918834Y-131890759D01*
X84974767Y-131932631D01*
X84999184Y-131998095D01*
X84999500Y-132006941D01*
X84999500Y-133424656D01*
X84990062Y-133472104D01*
X84980263Y-133495763D01*
X84980262Y-133495766D01*
X84980260Y-133495771D01*
X84949500Y-133650413D01*
X84949500Y-133808106D01*
X84980261Y-133962749D01*
X84980264Y-133962761D01*
X85040602Y-134108432D01*
X85040609Y-134108445D01*
X85128210Y-134239548D01*
X85128213Y-134239552D01*
X85239707Y-134351046D01*
X85239711Y-134351049D01*
X85370814Y-134438650D01*
X85370827Y-134438657D01*
X85516498Y-134498995D01*
X85516503Y-134498997D01*
X85663165Y-134528170D01*
X85671153Y-134529759D01*
X85671156Y-134529760D01*
X85671158Y-134529760D01*
X85828844Y-134529760D01*
X85828845Y-134529759D01*
X85983497Y-134498997D01*
X86129179Y-134438654D01*
X86260289Y-134351049D01*
X86371789Y-134239549D01*
X86459394Y-134108439D01*
X86519737Y-133962757D01*
X86550500Y-133808102D01*
X86550500Y-133650418D01*
X86550500Y-133650415D01*
X86550499Y-133650413D01*
X86519739Y-133495771D01*
X86519738Y-133495768D01*
X86519737Y-133495763D01*
X86509937Y-133472104D01*
X86500500Y-133424656D01*
X86500500Y-129729604D01*
X86509939Y-129682151D01*
X86519737Y-129658497D01*
X86550500Y-129503842D01*
X86550500Y-129346158D01*
X86550500Y-129346155D01*
X86550499Y-129346153D01*
X86527039Y-129228213D01*
X86519737Y-129191503D01*
X86519735Y-129191498D01*
X86459397Y-129045827D01*
X86459390Y-129045814D01*
X86371789Y-128914711D01*
X86371786Y-128914707D01*
X86260292Y-128803213D01*
X86260288Y-128803210D01*
X86129185Y-128715609D01*
X86129172Y-128715602D01*
X85983501Y-128655264D01*
X85983489Y-128655261D01*
X85828845Y-128624500D01*
X85828842Y-128624500D01*
X85671158Y-128624500D01*
X85671155Y-128624500D01*
X85516510Y-128655261D01*
X85516498Y-128655264D01*
X85370827Y-128715602D01*
X85370814Y-128715609D01*
X85239711Y-128803210D01*
X85239707Y-128803213D01*
X85128213Y-128914707D01*
X85128210Y-128914711D01*
X85078102Y-128989703D01*
X85024489Y-129034508D01*
X84955164Y-129043215D01*
X84892137Y-129013060D01*
X84871898Y-128989703D01*
X84821789Y-128914711D01*
X84821786Y-128914707D01*
X84710292Y-128803213D01*
X84710288Y-128803210D01*
X84579185Y-128715609D01*
X84579172Y-128715602D01*
X84433501Y-128655264D01*
X84433489Y-128655261D01*
X84278845Y-128624500D01*
X84278842Y-128624500D01*
X84121158Y-128624500D01*
X84121155Y-128624500D01*
X83966510Y-128655261D01*
X83966498Y-128655264D01*
X83822452Y-128714930D01*
X83752983Y-128722399D01*
X83727548Y-128714930D01*
X83583501Y-128655264D01*
X83583489Y-128655261D01*
X83428845Y-128624500D01*
X83428842Y-128624500D01*
X83271158Y-128624500D01*
X83271155Y-128624500D01*
X83116510Y-128655261D01*
X83116498Y-128655264D01*
X82970827Y-128715602D01*
X82970814Y-128715609D01*
X82839711Y-128803210D01*
X82839707Y-128803213D01*
X82728213Y-128914707D01*
X82728210Y-128914711D01*
X82640609Y-129045814D01*
X82640602Y-129045827D01*
X82580264Y-129191498D01*
X82580261Y-129191510D01*
X82549500Y-129346153D01*
X72230242Y-129346153D01*
X72227572Y-129339707D01*
X72209397Y-129295827D01*
X72209390Y-129295814D01*
X72121789Y-129164711D01*
X72121786Y-129164707D01*
X72010292Y-129053213D01*
X72010288Y-129053210D01*
X71879185Y-128965609D01*
X71879172Y-128965602D01*
X71733501Y-128905264D01*
X71733489Y-128905261D01*
X71578845Y-128874500D01*
X71578842Y-128874500D01*
X71421158Y-128874500D01*
X71421155Y-128874500D01*
X71266510Y-128905261D01*
X71266498Y-128905264D01*
X71120827Y-128965602D01*
X71120814Y-128965609D01*
X70989711Y-129053210D01*
X70989707Y-129053213D01*
X70878213Y-129164707D01*
X70878210Y-129164711D01*
X70790609Y-129295814D01*
X70790602Y-129295827D01*
X70730264Y-129441498D01*
X70730261Y-129441510D01*
X70699500Y-129596153D01*
X65261308Y-129596153D01*
X65209397Y-129470827D01*
X65209390Y-129470814D01*
X65121789Y-129339711D01*
X65121786Y-129339707D01*
X65010292Y-129228213D01*
X65010288Y-129228210D01*
X64879185Y-129140609D01*
X64879172Y-129140602D01*
X64733501Y-129080264D01*
X64733489Y-129080261D01*
X64578845Y-129049500D01*
X64578842Y-129049500D01*
X64421158Y-129049500D01*
X64421155Y-129049500D01*
X64266510Y-129080261D01*
X64266498Y-129080264D01*
X64120827Y-129140602D01*
X64120814Y-129140609D01*
X63989711Y-129228210D01*
X63989707Y-129228213D01*
X63878213Y-129339707D01*
X63878210Y-129339711D01*
X63790609Y-129470814D01*
X63790602Y-129470827D01*
X63730264Y-129616498D01*
X63730261Y-129616510D01*
X63699500Y-129771153D01*
X58700500Y-129771153D01*
X58700500Y-126278543D01*
X59524499Y-126278543D01*
X59562947Y-126471829D01*
X59562950Y-126471839D01*
X59638364Y-126653907D01*
X59638371Y-126653920D01*
X59747860Y-126817781D01*
X59747863Y-126817785D01*
X59887214Y-126957136D01*
X59887218Y-126957139D01*
X60051079Y-127066628D01*
X60051092Y-127066635D01*
X60233160Y-127142049D01*
X60233165Y-127142051D01*
X60233169Y-127142051D01*
X60233170Y-127142052D01*
X60426456Y-127180500D01*
X60426459Y-127180500D01*
X61423543Y-127180500D01*
X61553582Y-127154632D01*
X61616835Y-127142051D01*
X61798914Y-127066632D01*
X61962782Y-126957139D01*
X62102139Y-126817782D01*
X62211632Y-126653914D01*
X62287051Y-126471835D01*
X62325500Y-126278543D01*
X63554499Y-126278543D01*
X63592947Y-126471829D01*
X63592950Y-126471839D01*
X63668364Y-126653907D01*
X63668371Y-126653920D01*
X63777860Y-126817781D01*
X63777863Y-126817785D01*
X63917215Y-126957137D01*
X63917218Y-126957139D01*
X64029533Y-127032185D01*
X64074338Y-127085796D01*
X64083045Y-127155121D01*
X64063745Y-127204177D01*
X64006382Y-127290027D01*
X64006376Y-127290038D01*
X63955461Y-127412959D01*
X63955458Y-127412969D01*
X63929500Y-127543466D01*
X63929500Y-127543469D01*
X63929500Y-127676531D01*
X63929500Y-127676533D01*
X63929499Y-127676533D01*
X63955458Y-127807030D01*
X63955461Y-127807040D01*
X64006376Y-127929961D01*
X64006386Y-127929979D01*
X64080301Y-128040601D01*
X64080307Y-128040609D01*
X64174390Y-128134692D01*
X64174398Y-128134698D01*
X64285020Y-128208613D01*
X64285023Y-128208614D01*
X64285031Y-128208620D01*
X64407964Y-128259540D01*
X64407968Y-128259540D01*
X64407969Y-128259541D01*
X64538466Y-128285500D01*
X64538469Y-128285500D01*
X64671533Y-128285500D01*
X64759325Y-128268035D01*
X64802036Y-128259540D01*
X64924969Y-128208620D01*
X65035606Y-128134695D01*
X65129695Y-128040606D01*
X65203620Y-127929969D01*
X65254540Y-127807036D01*
X65280500Y-127676531D01*
X65280500Y-127543469D01*
X65280500Y-127543466D01*
X65254541Y-127412969D01*
X65254540Y-127412968D01*
X65254540Y-127412964D01*
X65229267Y-127351950D01*
X65221799Y-127282484D01*
X65253074Y-127220004D01*
X65313163Y-127184352D01*
X65343829Y-127180500D01*
X65753543Y-127180500D01*
X65883582Y-127154632D01*
X65946835Y-127142051D01*
X66128914Y-127066632D01*
X66292782Y-126957139D01*
X66432139Y-126817782D01*
X66541632Y-126653914D01*
X66617051Y-126471835D01*
X66655500Y-126278541D01*
X66655500Y-126081459D01*
X66655500Y-126081456D01*
X66617052Y-125888170D01*
X66617051Y-125888169D01*
X66617051Y-125888165D01*
X66554996Y-125738349D01*
X66541635Y-125706092D01*
X66541628Y-125706079D01*
X66432139Y-125542218D01*
X66432136Y-125542214D01*
X66292785Y-125402863D01*
X66292780Y-125402859D01*
X66291421Y-125401951D01*
X66291420Y-125401950D01*
X66142066Y-125302155D01*
X87810000Y-125302155D01*
X87810000Y-125950000D01*
X88726988Y-125950000D01*
X88694075Y-126007007D01*
X88660000Y-126134174D01*
X88660000Y-126265826D01*
X88694075Y-126392993D01*
X88726988Y-126450000D01*
X87810000Y-126450000D01*
X87810000Y-127097844D01*
X87816401Y-127157372D01*
X87816403Y-127157379D01*
X87866645Y-127292086D01*
X87866649Y-127292093D01*
X87952809Y-127407187D01*
X87952812Y-127407190D01*
X88067906Y-127493350D01*
X88067913Y-127493354D01*
X88202620Y-127543596D01*
X88202627Y-127543598D01*
X88262155Y-127549999D01*
X88262172Y-127550000D01*
X88910000Y-127550000D01*
X88910000Y-126633012D01*
X88967007Y-126665925D01*
X89094174Y-126700000D01*
X89225826Y-126700000D01*
X89352993Y-126665925D01*
X89410000Y-126633012D01*
X89410000Y-127550000D01*
X90057828Y-127550000D01*
X90057844Y-127549999D01*
X90117372Y-127543598D01*
X90117379Y-127543596D01*
X90252086Y-127493354D01*
X90252093Y-127493350D01*
X90367187Y-127407190D01*
X90367190Y-127407187D01*
X90453350Y-127292093D01*
X90453354Y-127292086D01*
X90502422Y-127160529D01*
X90544293Y-127104595D01*
X90609757Y-127080178D01*
X90678030Y-127095030D01*
X90706285Y-127116181D01*
X90820213Y-127230109D01*
X90992179Y-127355048D01*
X90992181Y-127355049D01*
X90992184Y-127355051D01*
X91181588Y-127451557D01*
X91383757Y-127517246D01*
X91593713Y-127550500D01*
X91593714Y-127550500D01*
X91806286Y-127550500D01*
X91806287Y-127550500D01*
X92016243Y-127517246D01*
X92218412Y-127451557D01*
X92407816Y-127355051D01*
X92494471Y-127292093D01*
X92579786Y-127230109D01*
X92579788Y-127230106D01*
X92579792Y-127230104D01*
X92730104Y-127079792D01*
X92730106Y-127079788D01*
X92730109Y-127079786D01*
X92855048Y-126907820D01*
X92855047Y-126907820D01*
X92855051Y-126907816D01*
X92859514Y-126899054D01*
X92907488Y-126848259D01*
X92975308Y-126831463D01*
X93041444Y-126853999D01*
X93080486Y-126899056D01*
X93084951Y-126907820D01*
X93209890Y-127079786D01*
X93360213Y-127230109D01*
X93532179Y-127355048D01*
X93532181Y-127355049D01*
X93532184Y-127355051D01*
X93721588Y-127451557D01*
X93923757Y-127517246D01*
X94133713Y-127550500D01*
X94133714Y-127550500D01*
X94346286Y-127550500D01*
X94346287Y-127550500D01*
X94556243Y-127517246D01*
X94758412Y-127451557D01*
X94947816Y-127355051D01*
X95034471Y-127292093D01*
X95119786Y-127230109D01*
X95119788Y-127230106D01*
X95119792Y-127230104D01*
X95270104Y-127079792D01*
X95270106Y-127079788D01*
X95270109Y-127079786D01*
X95395048Y-126907820D01*
X95395047Y-126907820D01*
X95395051Y-126907816D01*
X95399514Y-126899054D01*
X95447488Y-126848259D01*
X95515308Y-126831463D01*
X95581444Y-126853999D01*
X95620486Y-126899056D01*
X95624951Y-126907820D01*
X95749890Y-127079786D01*
X95900213Y-127230109D01*
X96072179Y-127355048D01*
X96072181Y-127355049D01*
X96072184Y-127355051D01*
X96261588Y-127451557D01*
X96463757Y-127517246D01*
X96673713Y-127550500D01*
X96673714Y-127550500D01*
X96886286Y-127550500D01*
X96886287Y-127550500D01*
X97096243Y-127517246D01*
X97298412Y-127451557D01*
X97487816Y-127355051D01*
X97574471Y-127292093D01*
X97659786Y-127230109D01*
X97659788Y-127230106D01*
X97659792Y-127230104D01*
X97810104Y-127079792D01*
X97810106Y-127079788D01*
X97810109Y-127079786D01*
X97935048Y-126907820D01*
X97935047Y-126907820D01*
X97935051Y-126907816D01*
X98031557Y-126718412D01*
X98097246Y-126516243D01*
X98130500Y-126306287D01*
X98130500Y-126093713D01*
X98097246Y-125883757D01*
X98031557Y-125681588D01*
X97935051Y-125492184D01*
X97935049Y-125492181D01*
X97935048Y-125492179D01*
X97810109Y-125320213D01*
X97659786Y-125169890D01*
X97487820Y-125044951D01*
X97298414Y-124948444D01*
X97298413Y-124948443D01*
X97298412Y-124948443D01*
X97096243Y-124882754D01*
X97096241Y-124882753D01*
X97096240Y-124882753D01*
X96934957Y-124857208D01*
X96886287Y-124849500D01*
X96673713Y-124849500D01*
X96625042Y-124857208D01*
X96463760Y-124882753D01*
X96261585Y-124948444D01*
X96072179Y-125044951D01*
X95900213Y-125169890D01*
X95749890Y-125320213D01*
X95624949Y-125492182D01*
X95620484Y-125500946D01*
X95572509Y-125551742D01*
X95504688Y-125568536D01*
X95438553Y-125545998D01*
X95399516Y-125500946D01*
X95395050Y-125492182D01*
X95270109Y-125320213D01*
X95119786Y-125169890D01*
X94947820Y-125044951D01*
X94758414Y-124948444D01*
X94758413Y-124948443D01*
X94758412Y-124948443D01*
X94556243Y-124882754D01*
X94556241Y-124882753D01*
X94556240Y-124882753D01*
X94394957Y-124857208D01*
X94346287Y-124849500D01*
X94133713Y-124849500D01*
X94085042Y-124857208D01*
X93923760Y-124882753D01*
X93721585Y-124948444D01*
X93532179Y-125044951D01*
X93360213Y-125169890D01*
X93209890Y-125320213D01*
X93084949Y-125492182D01*
X93080484Y-125500946D01*
X93032509Y-125551742D01*
X92964688Y-125568536D01*
X92898553Y-125545998D01*
X92859516Y-125500946D01*
X92855050Y-125492182D01*
X92730109Y-125320213D01*
X92579786Y-125169890D01*
X92407820Y-125044951D01*
X92218414Y-124948444D01*
X92218413Y-124948443D01*
X92218412Y-124948443D01*
X92016243Y-124882754D01*
X92016241Y-124882753D01*
X92016240Y-124882753D01*
X91854957Y-124857208D01*
X91806287Y-124849500D01*
X91593713Y-124849500D01*
X91545042Y-124857208D01*
X91383760Y-124882753D01*
X91181585Y-124948444D01*
X90992179Y-125044951D01*
X90820215Y-125169889D01*
X90706285Y-125283819D01*
X90644962Y-125317303D01*
X90575270Y-125312319D01*
X90519337Y-125270447D01*
X90502422Y-125239470D01*
X90453354Y-125107913D01*
X90453350Y-125107906D01*
X90367190Y-124992812D01*
X90367187Y-124992809D01*
X90252093Y-124906649D01*
X90252086Y-124906645D01*
X90117379Y-124856403D01*
X90117372Y-124856401D01*
X90057844Y-124850000D01*
X89410000Y-124850000D01*
X89410000Y-125766988D01*
X89352993Y-125734075D01*
X89225826Y-125700000D01*
X89094174Y-125700000D01*
X88967007Y-125734075D01*
X88910000Y-125766988D01*
X88910000Y-124850000D01*
X88262155Y-124850000D01*
X88202627Y-124856401D01*
X88202620Y-124856403D01*
X88067913Y-124906645D01*
X88067906Y-124906649D01*
X87952812Y-124992809D01*
X87952809Y-124992812D01*
X87866649Y-125107906D01*
X87866645Y-125107913D01*
X87816403Y-125242620D01*
X87816401Y-125242627D01*
X87810000Y-125302155D01*
X66142066Y-125302155D01*
X66128920Y-125293371D01*
X66128907Y-125293364D01*
X65946839Y-125217950D01*
X65946829Y-125217947D01*
X65753543Y-125179500D01*
X65753541Y-125179500D01*
X64456459Y-125179500D01*
X64456457Y-125179500D01*
X64263170Y-125217947D01*
X64263160Y-125217950D01*
X64081092Y-125293364D01*
X64081079Y-125293371D01*
X63917218Y-125402860D01*
X63917214Y-125402863D01*
X63777863Y-125542214D01*
X63777860Y-125542218D01*
X63668371Y-125706079D01*
X63668364Y-125706092D01*
X63592950Y-125888160D01*
X63592947Y-125888170D01*
X63554500Y-126081456D01*
X63554500Y-126081459D01*
X63554500Y-126278541D01*
X63554500Y-126278543D01*
X63554499Y-126278543D01*
X62325500Y-126278543D01*
X62325500Y-126278541D01*
X62325500Y-126081459D01*
X62325500Y-126081456D01*
X62287052Y-125888170D01*
X62287051Y-125888169D01*
X62287051Y-125888165D01*
X62224996Y-125738349D01*
X62211635Y-125706092D01*
X62211628Y-125706079D01*
X62102139Y-125542218D01*
X62102136Y-125542214D01*
X61962785Y-125402863D01*
X61962781Y-125402860D01*
X61798920Y-125293371D01*
X61798907Y-125293364D01*
X61616839Y-125217950D01*
X61616829Y-125217947D01*
X61423543Y-125179500D01*
X61423541Y-125179500D01*
X60426459Y-125179500D01*
X60426457Y-125179500D01*
X60233170Y-125217947D01*
X60233160Y-125217950D01*
X60051092Y-125293364D01*
X60051079Y-125293371D01*
X59887218Y-125402860D01*
X59887214Y-125402863D01*
X59747863Y-125542214D01*
X59747860Y-125542218D01*
X59638371Y-125706079D01*
X59638364Y-125706092D01*
X59562950Y-125888160D01*
X59562947Y-125888170D01*
X59524500Y-126081456D01*
X59524500Y-126081459D01*
X59524500Y-126278541D01*
X59524500Y-126278543D01*
X59524499Y-126278543D01*
X58700500Y-126278543D01*
X58700500Y-124456961D01*
X58701280Y-124443078D01*
X58713966Y-124330485D01*
X58713966Y-124330479D01*
X58720142Y-124303418D01*
X58755256Y-124203068D01*
X58767299Y-124178062D01*
X58823863Y-124088040D01*
X58841168Y-124066341D01*
X58916341Y-123991168D01*
X58938040Y-123973863D01*
X59028062Y-123917299D01*
X59053068Y-123905256D01*
X59153418Y-123870142D01*
X59180481Y-123863966D01*
X59277769Y-123853004D01*
X59293078Y-123851280D01*
X59306961Y-123850500D01*
X59357583Y-123850500D01*
X98392417Y-123850500D01*
X98443039Y-123850500D01*
X98456922Y-123851279D01*
G37*
%TD.AperFunction*%
%TD*%
M02*
