%TF.GenerationSoftware,KiCad,Pcbnew,9.0.0*%
%TF.CreationDate,2025-03-09T00:38:04-06:00*%
%TF.ProjectId,Protyping board,50726f74-7970-4696-9e67-20626f617264,rev?*%
%TF.SameCoordinates,Original*%
%TF.FileFunction,Soldermask,Top*%
%TF.FilePolarity,Negative*%
%FSLAX46Y46*%
G04 Gerber Fmt 4.6, Leading zero omitted, Abs format (unit mm)*
G04 Created by KiCad (PCBNEW 9.0.0) date 2025-03-09 00:38:04*
%MOMM*%
%LPD*%
G01*
G04 APERTURE LIST*
G04 Aperture macros list*
%AMRoundRect*
0 Rectangle with rounded corners*
0 $1 Rounding radius*
0 $2 $3 $4 $5 $6 $7 $8 $9 X,Y pos of 4 corners*
0 Add a 4 corners polygon primitive as box body*
4,1,4,$2,$3,$4,$5,$6,$7,$8,$9,$2,$3,0*
0 Add four circle primitives for the rounded corners*
1,1,$1+$1,$2,$3*
1,1,$1+$1,$4,$5*
1,1,$1+$1,$6,$7*
1,1,$1+$1,$8,$9*
0 Add four rect primitives between the rounded corners*
20,1,$1+$1,$2,$3,$4,$5,0*
20,1,$1+$1,$4,$5,$6,$7,0*
20,1,$1+$1,$6,$7,$8,$9,0*
20,1,$1+$1,$8,$9,$2,$3,0*%
G04 Aperture macros list end*
%ADD10RoundRect,0.250000X-0.325000X-0.650000X0.325000X-0.650000X0.325000X0.650000X-0.325000X0.650000X0*%
%ADD11R,1.250000X1.000000*%
%ADD12RoundRect,0.200000X0.200000X0.275000X-0.200000X0.275000X-0.200000X-0.275000X0.200000X-0.275000X0*%
%ADD13RoundRect,0.100000X-0.637500X-0.100000X0.637500X-0.100000X0.637500X0.100000X-0.637500X0.100000X0*%
%ADD14C,0.650000*%
%ADD15RoundRect,0.150000X-0.425000X0.150000X-0.425000X-0.150000X0.425000X-0.150000X0.425000X0.150000X0*%
%ADD16RoundRect,0.075000X-0.500000X0.075000X-0.500000X-0.075000X0.500000X-0.075000X0.500000X0.075000X0*%
%ADD17O,2.100000X1.000000*%
%ADD18O,1.800000X1.000000*%
%ADD19RoundRect,0.250000X0.625000X-0.375000X0.625000X0.375000X-0.625000X0.375000X-0.625000X-0.375000X0*%
%ADD20R,1.700000X1.700000*%
%ADD21O,1.700000X1.700000*%
%ADD22RoundRect,0.200000X-0.200000X-0.275000X0.200000X-0.275000X0.200000X0.275000X-0.200000X0.275000X0*%
%ADD23RoundRect,0.140000X-0.140000X-0.170000X0.140000X-0.170000X0.140000X0.170000X-0.140000X0.170000X0*%
%ADD24RoundRect,0.200000X-0.275000X0.200000X-0.275000X-0.200000X0.275000X-0.200000X0.275000X0.200000X0*%
%ADD25RoundRect,0.140000X-0.170000X0.140000X-0.170000X-0.140000X0.170000X-0.140000X0.170000X0.140000X0*%
%ADD26RoundRect,0.250000X1.050000X-1.050000X1.050000X1.050000X-1.050000X1.050000X-1.050000X-1.050000X0*%
%ADD27C,2.600000*%
%ADD28RoundRect,0.150000X-0.825000X-0.150000X0.825000X-0.150000X0.825000X0.150000X-0.825000X0.150000X0*%
%ADD29RoundRect,0.150000X-0.512500X-0.150000X0.512500X-0.150000X0.512500X0.150000X-0.512500X0.150000X0*%
G04 APERTURE END LIST*
D10*
%TO.C,C4*%
X70975000Y-125250000D03*
X68025000Y-125250000D03*
%TD*%
%TO.C,C5*%
X85475000Y-126300000D03*
X82525000Y-126300000D03*
%TD*%
%TO.C,C3*%
X89975000Y-134250000D03*
X87025000Y-134250000D03*
%TD*%
D11*
%TO.C,SW2*%
X68125000Y-149750000D03*
X75875000Y-149750000D03*
%TD*%
D12*
%TO.C,R13*%
X79825000Y-146500000D03*
X78175000Y-146500000D03*
%TD*%
%TO.C,R3*%
X87175000Y-139100000D03*
X85525000Y-139100000D03*
%TD*%
D13*
%TO.C,U3*%
X74637500Y-130075000D03*
X74637500Y-130725000D03*
X74637500Y-131375000D03*
X74637500Y-132025000D03*
X74637500Y-132675000D03*
X74637500Y-133325000D03*
X74637500Y-133975000D03*
X74637500Y-134625000D03*
X74637500Y-135275000D03*
X74637500Y-135925000D03*
X80362500Y-135925000D03*
X80362500Y-135275000D03*
X80362500Y-134625000D03*
X80362500Y-133975000D03*
X80362500Y-133325000D03*
X80362500Y-132675000D03*
X80362500Y-132025000D03*
X80362500Y-131375000D03*
X80362500Y-130725000D03*
X80362500Y-130075000D03*
%TD*%
D14*
%TO.C,J2*%
X64605000Y-127610000D03*
X64605000Y-133390000D03*
D15*
X65680000Y-127300000D03*
X65680000Y-128100000D03*
D16*
X65680000Y-129250000D03*
X65680000Y-130250000D03*
X65680000Y-130750000D03*
X65680000Y-131750000D03*
D15*
X65680000Y-132900000D03*
X65680000Y-133700000D03*
X65680000Y-133700000D03*
X65680000Y-132900000D03*
D16*
X65680000Y-132250000D03*
X65680000Y-131250000D03*
X65680000Y-129750000D03*
X65680000Y-128750000D03*
D15*
X65680000Y-128100000D03*
X65680000Y-127300000D03*
D17*
X65105000Y-126180000D03*
D18*
X60925000Y-126180000D03*
D17*
X65105000Y-134820000D03*
D18*
X60925000Y-134820000D03*
%TD*%
D19*
%TO.C,D1*%
X60900000Y-145525000D03*
X60900000Y-142725000D03*
%TD*%
D12*
%TO.C,R7*%
X83875000Y-143950000D03*
X82225000Y-143950000D03*
%TD*%
D20*
%TO.C,J3*%
X89160000Y-126200000D03*
D21*
X91700000Y-126200000D03*
X94240000Y-126200000D03*
X96780000Y-126200000D03*
%TD*%
D22*
%TO.C,R6*%
X85625000Y-143950000D03*
X87275000Y-143950000D03*
%TD*%
D19*
%TO.C,D2*%
X63850000Y-145525000D03*
X63850000Y-142725000D03*
%TD*%
D11*
%TO.C,SW1*%
X78625000Y-149750000D03*
X86375000Y-149750000D03*
%TD*%
D12*
%TO.C,R2*%
X83775000Y-139000000D03*
X82125000Y-139000000D03*
%TD*%
D23*
%TO.C,C7*%
X81700000Y-146000000D03*
X82660000Y-146000000D03*
%TD*%
D24*
%TO.C,R8*%
X60700000Y-149100000D03*
X60700000Y-150750000D03*
%TD*%
D22*
%TO.C,R11*%
X67525000Y-132600000D03*
X69175000Y-132600000D03*
%TD*%
D24*
%TO.C,R5*%
X82250000Y-140675000D03*
X82250000Y-142325000D03*
%TD*%
D23*
%TO.C,C6*%
X71340000Y-146000000D03*
X72300000Y-146000000D03*
%TD*%
D25*
%TO.C,C1*%
X82750000Y-133590000D03*
X82750000Y-134550000D03*
%TD*%
D22*
%TO.C,R10*%
X67525000Y-129000000D03*
X69175000Y-129000000D03*
%TD*%
%TO.C,R1*%
X72825000Y-125950000D03*
X74475000Y-125950000D03*
%TD*%
D12*
%TO.C,R12*%
X69505000Y-146500000D03*
X67855000Y-146500000D03*
%TD*%
D26*
%TO.C,J1*%
X94000000Y-144000000D03*
D27*
X94000000Y-138920000D03*
%TD*%
D28*
%TO.C,U2*%
X75025000Y-139595000D03*
X75025000Y-140865000D03*
X75025000Y-142135000D03*
X75025000Y-143405000D03*
X79975000Y-143405000D03*
X79975000Y-142135000D03*
X79975000Y-140865000D03*
X79975000Y-139595000D03*
%TD*%
D25*
%TO.C,C2*%
X84250000Y-133620000D03*
X84250000Y-134580000D03*
%TD*%
D24*
%TO.C,R9*%
X64000000Y-149000000D03*
X64000000Y-150650000D03*
%TD*%
D29*
%TO.C,U1*%
X76562500Y-124787500D03*
X76562500Y-125737500D03*
X76562500Y-126687500D03*
X78837500Y-126687500D03*
X78837500Y-124787500D03*
%TD*%
D24*
%TO.C,R4*%
X85550000Y-140675000D03*
X85550000Y-142325000D03*
%TD*%
M02*
